<svg width="60" height="60" fill="none" xmlns="http://www.w3.org/2000/svg"><g clip-path="url(#a)"><path d="m49.568 17.599-.898-8.937a.51.51 0 0 0-.636-.442l-8.706 2.265a.509.509 0 0 0-.163.91l2.67 1.789s-1.288 12.246-27.538 15.31v.569c5.782.031 22.98.305 32.46-12.422l2.012 1.426a.51.51 0 0 0 .799-.468Z" fill="url(#b)"/><path d="M15 53.438H2.812a.937.937 0 0 0-.937.937v3.75c0 .518.42.938.938.938H15c.518 0 .938-.42.938-.938v-3.75a.937.937 0 0 0-.938-.938Z" fill="#FAE15A"/><path d="M15.469 55.313H4.219a.469.469 0 0 0-.469.468v2.813c0 .259.21.468.469.468h11.25c.259 0 .469-.21.469-.468V55.78a.469.469 0 0 0-.47-.468Z" fill="#F5C115"/><path d="M5.625 56.25h1.406v2.813H5.625V56.25ZM10.781 56.25h1.406v2.813h-1.406V56.25Z" fill="#EFA400"/><path d="M15 47.813H2.812a.937.937 0 0 0-.937.937v3.75c0 .518.42.938.938.938H15c.518 0 .938-.42.938-.938v-3.75a.937.937 0 0 0-.938-.938Z" fill="#FAE15A"/><path d="M15.469 49.688H4.219a.469.469 0 0 0-.469.468v2.813c0 .259.21.468.469.468h11.25c.259 0 .469-.21.469-.468v-2.813a.469.469 0 0 0-.47-.468Z" fill="#F5C115"/><path d="M5.625 50.625h1.406v2.813H5.625v-2.813ZM10.781 50.625h1.406v2.813h-1.406v-2.813Z" fill="#EFA400"/><path d="M29.063 53.438H16.874a.937.937 0 0 0-.938.937v3.75c0 .518.42.938.938.938h12.188c.517 0 .937-.42.937-.938v-3.75a.937.937 0 0 0-.938-.938Z" fill="#FAE15A"/><path d="M29.531 55.313h-11.25a.469.469 0 0 0-.468.468v2.813c0 .259.21.468.468.468h11.25c.26 0 .469-.21.469-.468V55.78a.469.469 0 0 0-.469-.468Z" fill="#F5C115"/><path d="M19.688 56.25h1.406v2.813h-1.407V56.25ZM24.844 56.25h1.406v2.813h-1.406V56.25Z" fill="#EFA400"/><path d="M29.063 47.813H16.874a.937.937 0 0 0-.938.937v3.75c0 .518.42.938.938.938h12.188c.517 0 .937-.42.937-.938v-3.75a.937.937 0 0 0-.938-.938Z" fill="#FAE15A"/><path d="M29.531 49.688h-11.25a.469.469 0 0 0-.468.468v2.813c0 .259.21.468.468.468h11.25c.26 0 .469-.21.469-.468v-2.813a.469.469 0 0 0-.469-.468Z" fill="#F5C115"/><path d="M19.688 50.625h1.406v2.813h-1.407v-2.813ZM24.844 50.625h1.406v2.813h-1.406v-2.813Z" fill="#EFA400"/><path d="M29.063 42.188H16.874a.937.937 0 0 0-.938.937v3.75c0 .518.42.938.938.938h12.188c.517 0 .937-.42.937-.938v-3.75a.937.937 0 0 0-.938-.938Z" fill="#FAE15A"/><path d="M29.531 44.063h-11.25a.469.469 0 0 0-.468.468v2.813c0 .259.21.468.468.468h11.25c.26 0 .469-.21.469-.468V44.53a.469.469 0 0 0-.469-.468Z" fill="#F5C115"/><path d="M19.688 45h1.406v2.813h-1.407V45ZM24.844 45h1.406v2.813h-1.406V45Z" fill="#EFA400"/><path d="M43.125 53.438H30.937a.937.937 0 0 0-.937.937v3.75c0 .518.42.938.938.938h12.187c.518 0 .938-.42.938-.938v-3.75a.937.937 0 0 0-.938-.938Z" fill="#FAE15A"/><path d="M43.594 55.313h-11.25a.469.469 0 0 0-.469.468v2.813c0 .259.21.468.469.468h11.25c.259 0 .468-.21.468-.468V55.78a.469.469 0 0 0-.468-.468Z" fill="#F5C115"/><path d="M33.75 56.25h1.406v2.813H33.75V56.25ZM38.906 56.25h1.407v2.813h-1.407V56.25Z" fill="#EFA400"/><path d="M43.125 47.813H30.937a.937.937 0 0 0-.937.937v3.75c0 .518.42.938.938.938h12.187c.518 0 .938-.42.938-.938v-3.75a.937.937 0 0 0-.938-.938Z" fill="#FAE15A"/><path d="M43.594 49.688h-11.25a.469.469 0 0 0-.469.468v2.813c0 .259.21.468.469.468h11.25c.259 0 .468-.21.468-.468v-2.813a.469.469 0 0 0-.468-.468Z" fill="#F5C115"/><path d="M33.75 50.625h1.406v2.813H33.75v-2.813ZM38.906 50.625h1.407v2.813h-1.407v-2.813Z" fill="#EFA400"/><path d="M43.125 42.188H30.937a.937.937 0 0 0-.937.937v3.75c0 .518.42.938.938.938h12.187c.518 0 .938-.42.938-.938v-3.75a.937.937 0 0 0-.938-.938Z" fill="#FAE15A"/><path d="M43.594 44.063h-11.25a.469.469 0 0 0-.469.468v2.813c0 .259.21.468.469.468h11.25c.259 0 .468-.21.468-.468V44.53a.469.469 0 0 0-.468-.468Z" fill="#F5C115"/><path d="M33.75 45h1.406v2.813H33.75V45ZM38.906 45h1.407v2.813h-1.407V45Z" fill="#EFA400"/><path d="M43.125 36.563H30.937A.937.937 0 0 0 30 37.5v3.75c0 .518.42.938.938.938h12.187c.518 0 .938-.42.938-.938V37.5a.937.937 0 0 0-.938-.938Z" fill="#FAE15A"/><path d="M43.594 38.438h-11.25a.469.469 0 0 0-.469.468v2.813c0 .259.21.468.469.468h11.25c.259 0 .468-.21.468-.468v-2.813a.469.469 0 0 0-.468-.468Z" fill="#F5C115"/><path d="M33.75 39.375h1.406v2.813H33.75v-2.813ZM38.906 39.375h1.407v2.813h-1.407v-2.813Z" fill="#EFA400"/><path d="M57.188 53.438H45a.937.937 0 0 0-.938.937v3.75c0 .518.42.938.938.938h12.188c.517 0 .937-.42.937-.938v-3.75a.937.937 0 0 0-.938-.938Z" fill="#FAE15A"/><path d="M57.656 55.313h-11.25a.469.469 0 0 0-.468.468v2.813c0 .259.21.468.468.468h11.25c.26 0 .469-.21.469-.468V55.78a.469.469 0 0 0-.469-.468Z" fill="#F5C115"/><path d="M47.813 56.25h1.406v2.813h-1.407V56.25ZM52.969 56.25h1.406v2.813h-1.406V56.25Z" fill="#EFA400"/><path d="M57.188 47.813H45a.937.937 0 0 0-.938.937v3.75c0 .518.42.938.938.938h12.188c.517 0 .937-.42.937-.938v-3.75a.937.937 0 0 0-.938-.938Z" fill="#FAE15A"/><path d="M57.656 49.688h-11.25a.469.469 0 0 0-.468.468v2.813c0 .259.21.468.468.468h11.25c.26 0 .469-.21.469-.468v-2.813a.469.469 0 0 0-.469-.468Z" fill="#F5C115"/><path d="M47.813 50.625h1.406v2.813h-1.407v-2.813ZM52.969 50.625h1.406v2.813h-1.406v-2.813Z" fill="#EFA400"/><path d="M57.188 42.188H45a.937.937 0 0 0-.938.937v3.75c0 .518.42.938.938.938h12.188c.517 0 .937-.42.937-.938v-3.75a.937.937 0 0 0-.938-.938Z" fill="#FAE15A"/><path d="M57.656 44.063h-11.25a.469.469 0 0 0-.468.468v2.813c0 .259.21.468.468.468h11.25c.26 0 .469-.21.469-.468V44.53a.469.469 0 0 0-.469-.468Z" fill="#F5C115"/><path d="M47.813 45h1.406v2.813h-1.407V45ZM52.969 45h1.406v2.813h-1.406V45Z" fill="#EFA400"/><path d="M57.188 36.563H45a.937.937 0 0 0-.938.937v3.75c0 .518.42.938.938.938h12.188c.517 0 .937-.42.937-.938V37.5a.937.937 0 0 0-.938-.938Z" fill="#FAE15A"/><path d="M57.656 38.438h-11.25a.469.469 0 0 0-.468.468v2.813c0 .259.21.468.468.468h11.25c.26 0 .469-.21.469-.468v-2.813a.469.469 0 0 0-.469-.468Z" fill="#F5C115"/><path d="M47.813 39.375h1.406v2.813h-1.407v-2.813ZM52.969 39.375h1.406v2.813h-1.406v-2.813Z" fill="#EFA400"/><path d="M57.188 30.938H45a.937.937 0 0 0-.938.937v3.75c0 .518.42.938.938.938h12.188c.517 0 .937-.42.937-.938v-3.75a.937.937 0 0 0-.938-.938Z" fill="#FAE15A"/><path d="M57.656 32.813h-11.25a.469.469 0 0 0-.468.468v2.813c0 .259.21.468.468.468h11.25c.26 0 .469-.21.469-.468V33.28a.469.469 0 0 0-.469-.468Z" fill="#F5C115"/><path d="M47.813 33.75h1.406v2.813h-1.407V33.75ZM52.969 33.75h1.406v2.813h-1.406V33.75Z" fill="#EFA400"/><path d="M57.188 25.313H45a.937.937 0 0 0-.938.937V30c0 .518.42.938.938.938h12.188c.517 0 .937-.42.937-.938v-3.75a.937.937 0 0 0-.938-.938Z" fill="#FAE15A"/><path d="M57.656 27.188h-11.25a.469.469 0 0 0-.468.468v2.813c0 .259.21.468.468.468h11.25c.26 0 .469-.21.469-.468v-2.813a.469.469 0 0 0-.469-.468Z" fill="#F5C115"/><path d="M47.813 28.125h1.406v2.813h-1.407v-2.813ZM52.969 28.125h1.406v2.813h-1.406v-2.813Z" fill="#EFA400"/><g filter="url(#c)"><circle cx="13" cy="27" r="12" fill="url(#d)"/><mask id="e" maskUnits="userSpaceOnUse" x="2.479" y="20.754" width="21" height="16" fill="#000"><path fill="#fff" d="M2.479 20.754h21v16h-21z"/><path d="M17.951 23.634a5.374 5.374 0 0 0-1.625.264 5.168 5.168 0 0 0-1.463.748c-.445.325-.837.715-1.223 1.108-.386.394-.77.775-1.189 1.138.846.512 1.802.807 2.784.914a6.998 6.998 0 0 0 5.46-1.774c.728-.663 1.327-1.41 1.698-2.32a6.758 6.758 0 0 0-2.335-1.426 6.702 6.702 0 0 0-2.71-.368 6.407 6.407 0 0 0-2.616.779c-.2.112-.394.233-.58.368a7.926 7.926 0 0 0-.541.427c-.349.3-.677.626-1.002.956-.325.33-.649.665-.988.985-.17.16-.344.317-.524.466-.18.15-.367.293-.562.423-.049.033-.098.067-.148.097-.05.03-.1.063-.15.092l-.154.087c-.051.03-.105.053-.157.08l-.08.04-.08.037c-.054.023-.107.048-.162.07-.11.043-.22.087-.333.12-.111.039-.227.065-.34.096l-.174.035-.087.018-.088.013c-.233.035-.47.051-.705.049a4.698 4.698 0 0 1-2.651-.855 4.893 4.893 0 0 1-1.728-2.187l-.02-.05.044-.031a4.463 4.463 0 0 1 2.216-.809 4.875 4.875 0 0 1 2.327.373c.365.156.71.356 1.03.588.32.234.613.503.88.793a7.498 7.498 0 0 1 1.278 1.981 9.375 9.375 0 0 1 .561 1.678c.042.192.082.386.111.58.06.389.105.779.14 1.17.02.195.032.39.048.586.012.196.027.392.037.587.044.784.07 1.568.077 2.352.009.784 0 1.568-.03 2.352a45.626 45.626 0 0 0 .001-2.352 51.426 51.426 0 0 0-.1-2.349c-.011-.195-.028-.39-.043-.586-.018-.195-.032-.39-.053-.585-.039-.39-.088-.778-.15-1.163a9.086 9.086 0 0 0-.682-2.233 7.388 7.388 0 0 0-1.272-1.948 5.877 5.877 0 0 0-.868-.773 5.229 5.229 0 0 0-1.01-.57 4.751 4.751 0 0 0-2.27-.35c-.769.074-1.5.283-2.123.737a4.68 4.68 0 0 0 1.681 2.09 4.57 4.57 0 0 0 2.57.823 4.29 4.29 0 0 0 .682-.047l.084-.013.084-.017.168-.035c.11-.03.221-.055.329-.093.109-.033.215-.076.321-.116.053-.022.105-.046.157-.07.026-.01.052-.022.078-.035l.076-.038c.05-.027.103-.05.152-.08l.15-.084c.049-.029.097-.06.146-.09a6.597 6.597 0 0 0 .692-.509c.177-.146.348-.302.516-.46.336-.317.656-.652.982-.983.327-.33.659-.659 1.014-.963a8.1 8.1 0 0 1 .553-.435c.19-.137.39-.261.595-.376a6.559 6.559 0 0 1 2.68-.791 6.85 6.85 0 0 1 2.77.38 6.893 6.893 0 0 1 2.38 1.46l.036.033-.018.044a7.45 7.45 0 0 1-.325.68c-.123.218-.255.432-.4.637a7.269 7.269 0 0 1-.469.589 7.07 7.07 0 0 1-3.12 2.017 7.105 7.105 0 0 1-2.967.287 6.828 6.828 0 0 1-2.81-.98l-.04-.025.036-.03c.419-.357.802-.755 1.191-1.146.39-.39.789-.777 1.24-1.1a5.15 5.15 0 0 1 1.479-.738 5.398 5.398 0 0 1 1.631-.244Z"/></mask><path d="M17.951 23.634a5.374 5.374 0 0 0-1.625.264 5.168 5.168 0 0 0-1.463.748c-.445.325-.837.715-1.223 1.108-.386.394-.77.775-1.189 1.138.846.512 1.802.807 2.784.914a6.998 6.998 0 0 0 5.46-1.774c.728-.663 1.327-1.41 1.698-2.32a6.758 6.758 0 0 0-2.335-1.426 6.702 6.702 0 0 0-2.71-.368 6.407 6.407 0 0 0-2.616.779c-.2.112-.394.233-.58.368a7.926 7.926 0 0 0-.541.427c-.349.3-.677.626-1.002.956-.325.33-.649.665-.988.985-.17.16-.344.317-.524.466-.18.15-.367.293-.562.423-.049.033-.098.067-.148.097-.05.03-.1.063-.15.092l-.154.087c-.051.03-.105.053-.157.08l-.08.04-.08.037c-.054.023-.107.048-.162.07-.11.043-.22.087-.333.12-.111.039-.227.065-.34.096l-.174.035-.087.018-.088.013c-.233.035-.47.051-.705.049a4.698 4.698 0 0 1-2.651-.855 4.893 4.893 0 0 1-1.728-2.187l-.02-.05.044-.031a4.463 4.463 0 0 1 2.216-.809 4.875 4.875 0 0 1 2.327.373c.365.156.71.356 1.03.588.32.234.613.503.88.793a7.498 7.498 0 0 1 1.278 1.981 9.375 9.375 0 0 1 .561 1.678c.042.192.082.386.111.58.06.389.105.779.14 1.17.02.195.032.39.048.586.012.196.027.392.037.587.044.784.07 1.568.077 2.352.009.784 0 1.568-.03 2.352a45.626 45.626 0 0 0 .001-2.352 51.426 51.426 0 0 0-.1-2.349c-.011-.195-.028-.39-.043-.586-.018-.195-.032-.39-.053-.585-.039-.39-.088-.778-.15-1.163a9.086 9.086 0 0 0-.682-2.233 7.388 7.388 0 0 0-1.272-1.948 5.877 5.877 0 0 0-.868-.773 5.229 5.229 0 0 0-1.01-.57 4.751 4.751 0 0 0-2.27-.35c-.769.074-1.5.283-2.123.737a4.68 4.68 0 0 0 1.681 2.09 4.57 4.57 0 0 0 2.57.823 4.29 4.29 0 0 0 .682-.047l.084-.013.084-.017.168-.035c.11-.03.221-.055.329-.093.109-.033.215-.076.321-.116.053-.022.105-.046.157-.07.026-.01.052-.022.078-.035l.076-.038c.05-.027.103-.05.152-.08l.15-.084c.049-.029.097-.06.146-.09a6.597 6.597 0 0 0 .692-.509c.177-.146.348-.302.516-.46.336-.317.656-.652.982-.983.327-.33.659-.659 1.014-.963a8.1 8.1 0 0 1 .553-.435c.19-.137.39-.261.595-.376a6.559 6.559 0 0 1 2.68-.791 6.85 6.85 0 0 1 2.77.38 6.893 6.893 0 0 1 2.38 1.46l.036.033-.018.044a7.45 7.45 0 0 1-.325.68c-.123.218-.255.432-.4.637a7.269 7.269 0 0 1-.469.589 7.07 7.07 0 0 1-3.12 2.017 7.105 7.105 0 0 1-2.967.287 6.828 6.828 0 0 1-2.81-.98l-.04-.025.036-.03c.419-.357.802-.755 1.191-1.146.39-.39.789-.777 1.24-1.1a5.15 5.15 0 0 1 1.479-.738 5.398 5.398 0 0 1 1.631-.244Z" fill="#fff"/><path d="M17.951 23.634a5.374 5.374 0 0 0-1.625.264 5.168 5.168 0 0 0-1.463.748c-.445.325-.837.715-1.223 1.108-.386.394-.77.775-1.189 1.138.846.512 1.802.807 2.784.914a6.998 6.998 0 0 0 5.46-1.774c.728-.663 1.327-1.41 1.698-2.32a6.758 6.758 0 0 0-2.335-1.426 6.702 6.702 0 0 0-2.71-.368 6.407 6.407 0 0 0-2.616.779c-.2.112-.394.233-.58.368a7.926 7.926 0 0 0-.541.427c-.349.3-.677.626-1.002.956-.325.33-.649.665-.988.985-.17.16-.344.317-.524.466-.18.15-.367.293-.562.423-.049.033-.098.067-.148.097-.05.03-.1.063-.15.092l-.154.087c-.051.03-.105.053-.157.08l-.08.04-.08.037c-.054.023-.107.048-.162.07-.11.043-.22.087-.333.12-.111.039-.227.065-.34.096l-.174.035-.087.018-.088.013c-.233.035-.47.051-.705.049a4.698 4.698 0 0 1-2.651-.855 4.893 4.893 0 0 1-1.728-2.187l-.02-.05.044-.031a4.463 4.463 0 0 1 2.216-.809 4.875 4.875 0 0 1 2.327.373c.365.156.71.356 1.03.588.32.234.613.503.88.793a7.498 7.498 0 0 1 1.278 1.981 9.375 9.375 0 0 1 .561 1.678c.042.192.082.386.111.58.06.389.105.779.14 1.17.02.195.032.39.048.586.012.196.027.392.037.587.044.784.07 1.568.077 2.352.009.784 0 1.568-.03 2.352a45.626 45.626 0 0 0 .001-2.352 51.426 51.426 0 0 0-.1-2.349c-.011-.195-.028-.39-.043-.586-.018-.195-.032-.39-.053-.585-.039-.39-.088-.778-.15-1.163a9.086 9.086 0 0 0-.682-2.233 7.388 7.388 0 0 0-1.272-1.948 5.877 5.877 0 0 0-.868-.773 5.229 5.229 0 0 0-1.01-.57 4.751 4.751 0 0 0-2.27-.35c-.769.074-1.5.283-2.123.737a4.68 4.68 0 0 0 1.681 2.09 4.57 4.57 0 0 0 2.57.823 4.29 4.29 0 0 0 .682-.047l.084-.013.084-.017.168-.035c.11-.03.221-.055.329-.093.109-.033.215-.076.321-.116.053-.022.105-.046.157-.07.026-.01.052-.022.078-.035l.076-.038c.05-.027.103-.05.152-.08l.15-.084c.049-.029.097-.06.146-.09a6.597 6.597 0 0 0 .692-.509c.177-.146.348-.302.516-.46.336-.317.656-.652.982-.983.327-.33.659-.659 1.014-.963a8.1 8.1 0 0 1 .553-.435c.19-.137.39-.261.595-.376a6.559 6.559 0 0 1 2.68-.791 6.85 6.85 0 0 1 2.77.38 6.893 6.893 0 0 1 2.38 1.46l.036.033-.018.044a7.45 7.45 0 0 1-.325.68c-.123.218-.255.432-.4.637a7.269 7.269 0 0 1-.469.589 7.07 7.07 0 0 1-3.12 2.017 7.105 7.105 0 0 1-2.967.287 6.828 6.828 0 0 1-2.81-.98l-.04-.025.036-.03c.419-.357.802-.755 1.191-1.146.39-.39.789-.777 1.24-1.1a5.15 5.15 0 0 1 1.479-.738 5.398 5.398 0 0 1 1.631-.244Z" stroke="#fff" stroke-width=".409" mask="url(#e)"/></g></g><defs><linearGradient id="b" x1="14.297" y1="12.115" x2="50.427" y2="16.434" gradientUnits="userSpaceOnUse"><stop stop-color="#30C917"/><stop offset="1" stop-color="#279A13"/></linearGradient><linearGradient id="d" x1="1" y1="19.5" x2="25.81" y2="21.254" gradientUnits="userSpaceOnUse"><stop stop-color="#30C917"/><stop offset="1" stop-color="#279A13"/></linearGradient><clipPath id="a"><path fill="#fff" d="M0 0h60v60H0z"/></clipPath><filter id="c" x="-8.143" y="7" width="42.286" height="42.286" filterUnits="userSpaceOnUse" color-interpolation-filters="sRGB"><feFlood flood-opacity="0" result="BackgroundImageFix"/><feColorMatrix in="SourceAlpha" values="0 0 0 0 0 0 0 0 0 0 0 0 0 0 0 0 0 0 127 0" result="hardAlpha"/><feOffset dy="1.143"/><feGaussianBlur stdDeviation="4.571"/><feComposite in2="hardAlpha" operator="out"/><feColorMatrix values="0 0 0 0 0.104167 0 0 0 0 0.066116 0 0 0 0 0.030816 0 0 0 0.12 0"/><feBlend in2="BackgroundImageFix" result="effect1_dropShadow_300_195"/><feBlend in="SourceGraphic" in2="effect1_dropShadow_300_195" result="shape"/></filter></defs></svg>