<svg xmlns="http://www.w3.org/2000/svg" width="60" height="60" fill="none"><path fill="#F6B545" d="M31.365 60h-30C.546 60 0 59.427 0 58.57v-2.856c0-.858.545-1.429 1.364-1.429h30c.818 0 1.363.572 1.363 1.429v2.857c0 .857-.545 1.428-1.363 1.428Z"/><path fill="#FFCB5B" d="M25.91 55.714H.001c0-.858.545-1.429 1.364-1.429H25.91v1.429Z"/><path fill="#F19920" d="M25.91 55.715v1.428c0 .858-.545 1.429-1.363 1.429H0C.001 59.429.546 60 1.365 60h30c.818 0 1.363-.57 1.363-1.428v-2.857H25.91Z"/><path fill="#F19920" d="M4.091 58.572v-2.143c0-.428-.273-.714-.682-.714-.409 0-.681.285-.681.714v2.143M8.182 58.572v-2.143c0-.428-.273-.714-.682-.714-.409 0-.682.285-.682.714v2.143M12.274 58.572v-2.143c0-.428-.273-.714-.682-.714-.41 0-.682.285-.682.714v2.143M16.365 58.572v-2.143c0-.428-.273-.714-.682-.714-.41 0-.682.285-.682.714v2.143M20.455 58.572v-2.143c0-.428-.272-.714-.681-.714-.41 0-.682.285-.682.714v2.143M24.546 58.572v-2.143c0-.428-.273-.714-.682-.714-.409 0-.681.285-.681.714v2.143"/><path fill="#F6B545" d="M34.092 54.285h-30c-.818 0-1.363-.572-1.363-1.429v-2.857c0-.857.545-1.429 1.363-1.429h30c.818 0 1.364.572 1.364 1.429v2.857c0 .857-.546 1.428-1.364 1.428Z"/><path fill="#FFCB5B" d="M28.638 49.999H2.728c0-.857.546-1.429 1.364-1.429h24.546V50Z"/><path fill="#F19920" d="M28.638 50v1.429c0 .857-.546 1.428-1.364 1.428H2.729c0 .857.545 1.429 1.363 1.429h30c.818 0 1.364-.572 1.364-1.429V50h-6.818Z"/><path fill="#F19920" d="M6.819 52.857v-2.143c0-.428-.273-.714-.682-.714-.41 0-.682.286-.682.714v2.143M10.91 52.857v-2.143c0-.428-.272-.714-.681-.714-.41 0-.682.286-.682.714v2.143M15.001 52.857v-2.143c0-.428-.272-.714-.681-.714-.41 0-.682.286-.682.714v2.143M19.092 52.857v-2.143c0-.428-.273-.714-.682-.714-.409 0-.681.286-.681.714v2.143M23.183 52.857v-2.143c0-.428-.273-.714-.682-.714-.409 0-.682.286-.682.714v2.143M27.274 52.857v-2.143c0-.428-.273-.714-.682-.714-.41 0-.682.286-.682.714v2.143"/><path fill="#F6B545" d="M36.82 42.855h-30c-.819 0-1.364-.572-1.364-1.429V38.57c0-.857.546-1.428 1.364-1.428h30c.818 0 1.363.571 1.363 1.428v2.857c0 .857-.545 1.429-1.363 1.429Z"/><path fill="#FFCB5B" d="M31.365 38.57H5.456c0-.858.546-1.43 1.364-1.43h24.545v1.43Z"/><path fill="#F19920" d="M31.364 38.57V40c0 .857-.545 1.428-1.363 1.428H5.455c0 .858.546 1.429 1.364 1.429h30c.818 0 1.363-.572 1.363-1.428V38.57h-6.818Z"/><path fill="#F19920" d="M9.545 41.428v-2.143c0-.429-.272-.715-.682-.715-.409 0-.681.286-.681.715v2.143M13.637 41.428v-2.143c0-.429-.273-.715-.682-.715-.409 0-.682.286-.682.715v2.143M17.728 41.428v-2.143c0-.429-.273-.715-.682-.715-.409 0-.682.286-.682.715v2.143M21.819 41.428v-2.143c0-.429-.273-.715-.682-.715-.41 0-.682.286-.682.715v2.143M25.91 41.428v-2.143c0-.429-.273-.715-.682-.715-.41 0-.682.286-.682.715v2.143M30 41.428v-2.143c0-.429-.272-.715-.681-.715-.41 0-.682.286-.682.715v2.143"/><path fill="#F6B545" d="M34.092 37.144h-30c-.818 0-1.363-.572-1.363-1.429v-2.857c0-.857.545-1.428 1.363-1.428h30c.818 0 1.364.571 1.364 1.428v2.857c0 .857-.546 1.429-1.364 1.429Z"/><path fill="#FFCB5B" d="M28.638 32.858H2.728c0-.857.546-1.428 1.364-1.428h24.546v1.428Z"/><path fill="#F19920" d="M28.638 32.856v1.428c0 .857-.546 1.429-1.364 1.429H2.729c0 .857.545 1.428 1.363 1.428h30c.818 0 1.364-.571 1.364-1.428v-2.858h-6.818Z"/><path fill="#F19920" d="M6.819 35.713V33.57c0-.429-.273-.715-.682-.715-.41 0-.682.286-.682.715v2.143M10.91 35.713V33.57c0-.429-.273-.715-.682-.715-.41 0-.682.286-.682.715v2.143M15.001 35.713V33.57c0-.429-.272-.715-.681-.715-.41 0-.682.286-.682.715v2.143M19.092 35.713V33.57c0-.429-.273-.715-.682-.715-.409 0-.681.286-.681.715v2.143M23.183 35.713V33.57c0-.429-.273-.715-.682-.715-.409 0-.682.286-.682.715v2.143M27.274 35.713V33.57c0-.429-.273-.715-.682-.715-.41 0-.682.286-.682.715v2.143"/><path fill="#F6B545" d="M31.365 48.57h-30C.546 48.57 0 47.998 0 47.14v-2.857c0-.857.545-1.428 1.364-1.428h30c.818 0 1.363.571 1.363 1.428v2.857c0 .857-.545 1.429-1.363 1.429Z"/><path fill="#FFCB5B" d="M25.91 44.288H.001c0-.857.545-1.429 1.364-1.429H25.91v1.429Z"/><path fill="#F19920" d="M25.91 44.285v1.429c0 .857-.545 1.428-1.363 1.428H0c0 .857.545 1.429 1.364 1.429h30c.818 0 1.363-.572 1.363-1.429v-2.857H25.91Z"/><path fill="#F19920" d="M4.091 47.142V45c0-.428-.273-.714-.682-.714-.409 0-.681.286-.681.714v2.143M8.183 47.142V45c0-.428-.273-.714-.682-.714-.409 0-.682.286-.682.714v2.143M12.273 47.142V45c0-.428-.273-.714-.682-.714-.41 0-.682.286-.682.714v2.143M16.365 47.142V45c0-.428-.273-.714-.682-.714-.41 0-.682.286-.682.714v2.143M20.455 47.142V45c0-.428-.272-.714-.681-.714-.41 0-.682.286-.682.714v2.143M24.546 47.142V45c0-.428-.273-.714-.682-.714-.409 0-.681.286-.681.714v2.143"/><path fill="#C97629" d="M57.274 50.714C55.5 49.43 54.546 47.286 54.546 45c0-8.714-3.272-17-9.136-23.143l-5.864-6.143V11.43l4.773-6.286c.41-.571.682-1.286.682-2C45 1.429 43.637 0 42 0h-5.182l-1.364 2.857L32.729 0h-6.545c-1.637 0-3 1.429-3 3.143 0 .714.272 1.428.681 2l4.773 6.286v4.285l-5.863 6.143C16.91 28 13.637 36.286 13.637 45c0 2.286-.954 4.428-2.727 5.714C9.137 52 8.183 54.143 8.183 56.428c0 2 1.5 3.572 3.409 3.572h45C58.5 60 60 58.428 60 56.428c0-2.285-.955-4.428-2.727-5.714Z"/><path fill="#FFCB5B" d="M40.23 15.716H27.957c-1.091 0-2.046-1-2.046-2.143 0-1.143.955-2.143 2.046-2.143h12.272c1.091 0 2.046 1 2.046 2.143 0 1.143-.955 2.143-2.045 2.143Z"/><path fill="#FFE278" d="M27.956 11.43h6.818c.41 0 .682.285.682.714 0 .428-.273.714-.682.714h-6.818c-.409 0-.682-.286-.682-.714s.273-.714.682-.714Z"/><path fill="#F6B545" d="M40.229 11.43h-.682v1.428c0 .857-.546 1.429-1.364 1.429H26.047c.273.857 1.09 1.428 1.909 1.428h12.273c1.09 0 2.045-1 2.045-2.143 0-1.143-.954-2.142-2.045-2.142Z"/><path fill="#F19920" d="M36.138 14.285h4.09c.41 0 .682.286.682.714 0 .429-.272.715-.681.715h-4.091c-.41 0-.682-.286-.682-.715 0-.428.273-.714.682-.714Z"/><path fill="#B06328" d="M42.41 29.855c1.637 2 2.591 4.43 2.591 7.286 0 6.286-4.909 11.429-10.909 11.429-2.727 0-5.045-1-6.954-2.715 2.045 2.572 5.045 4.143 8.318 4.143 6 0 10.909-5.142 10.909-11.428 0-3.572-1.5-6.715-3.955-8.715Z"/><ellipse cx="34.455" cy="37.199" fill="url(#a)" rx="10.664" ry="11.172"/><mask id="b" width="19" height="15" x="24.993" y="31.313" fill="#000" maskUnits="userSpaceOnUse"><path fill="#fff" d="M24.993 31.313h19v15h-19z"/><path d="M38.855 34.063a4.58 4.58 0 0 0-2.745.943c-.395.302-.744.664-1.087 1.03-.342.368-.684.722-1.056 1.06a5.83 5.83 0 0 0 2.473.85 5.95 5.95 0 0 0 2.598-.279 6.119 6.119 0 0 0 2.255-1.371c.647-.618 1.18-1.313 1.51-2.161a5.964 5.964 0 0 0-2.076-1.328 5.703 5.703 0 0 0-2.408-.341 5.465 5.465 0 0 0-2.84 1.067 7.132 7.132 0 0 0-.481.398c-.31.279-.602.582-.891.89-.29.307-.576.619-.878.917-.15.15-.305.295-.466.434a5.99 5.99 0 0 1-.5.394c-.042.03-.086.061-.13.09-.045.028-.089.058-.134.085l-.137.08c-.045.029-.093.051-.14.076l-.07.037-.071.034-.144.066c-.098.04-.196.08-.296.112-.099.036-.202.06-.303.089l-.154.033-.077.016-.078.012a3.785 3.785 0 0 1-.627.046 4 4 0 0 1-1.817-.46 4.413 4.413 0 0 1-.54-.336 4.527 4.527 0 0 1-1.534-2.036l-.018-.047.039-.029A3.855 3.855 0 0 1 28 33.682a4.158 4.158 0 0 1 2.068.347c.324.145.63.331.916.547.284.217.544.468.782.739a7.024 7.024 0 0 1 1.135 1.844 9.056 9.056 0 0 1 .499 1.562c.037.178.072.358.099.54.052.361.093.724.123 1.088.018.182.03.365.043.547.011.182.025.364.033.546a49.643 49.643 0 0 1 .042 4.379 44.392 44.392 0 0 0 0-2.19 50.156 50.156 0 0 0-.088-2.186c-.01-.182-.025-.364-.038-.546-.016-.181-.029-.363-.048-.544a18.047 18.047 0 0 0-.133-1.084 8.81 8.81 0 0 0-.606-2.078 6.922 6.922 0 0 0-1.13-1.814 5.318 5.318 0 0 0-.772-.72c-.28-.21-.58-.39-.898-.53a4.05 4.05 0 0 0-2.017-.325c-.683.068-1.332.262-1.886.685a4.324 4.324 0 0 0 2.017 2.272 3.876 3.876 0 0 0 1.761.441c.203.002.406-.013.606-.045l.075-.012.074-.016.15-.032c.097-.028.196-.051.292-.087.097-.03.19-.07.285-.108.047-.02.093-.043.14-.064l.069-.033.068-.036c.045-.025.091-.047.135-.074l.133-.078.13-.084a5.856 5.856 0 0 0 .615-.474c.157-.136.31-.28.458-.428.298-.295.583-.608.873-.915.29-.308.586-.614.901-.897.158-.142.322-.277.491-.405a5.433 5.433 0 0 1 1.682-.854c.401-.122.813-.203 1.23-.233a5.832 5.832 0 0 1 2.46.354 6.085 6.085 0 0 1 2.116 1.36l.031.03-.016.04a7.077 7.077 0 0 1-.288.634 6.78 6.78 0 0 1-.356.594c-.13.19-.268.373-.417.547a6.218 6.218 0 0 1-2.773 1.877 6.038 6.038 0 0 1-2.636.268 5.887 5.887 0 0 1-2.497-.911l-.036-.024.032-.029c.372-.331.713-.701 1.059-1.066.347-.363.7-.724 1.101-1.024a4.498 4.498 0 0 1 2.032-.86c.242-.037.488-.055.733-.054Z"/></mask><path fill="#fff" d="M38.855 34.063a4.58 4.58 0 0 0-2.745.943c-.395.302-.744.664-1.087 1.03-.342.368-.684.722-1.056 1.06a5.83 5.83 0 0 0 2.473.85 5.95 5.95 0 0 0 2.598-.279 6.119 6.119 0 0 0 2.255-1.371c.647-.618 1.18-1.313 1.51-2.161a5.964 5.964 0 0 0-2.076-1.328 5.703 5.703 0 0 0-2.408-.341 5.465 5.465 0 0 0-2.84 1.067 7.132 7.132 0 0 0-.481.398c-.31.279-.602.582-.891.89-.29.307-.576.619-.878.917-.15.15-.305.295-.466.434a5.99 5.99 0 0 1-.5.394c-.042.03-.086.061-.13.09-.045.028-.089.058-.134.085l-.137.08c-.045.029-.093.051-.14.076l-.07.037-.071.034-.144.066c-.098.04-.196.08-.296.112-.099.036-.202.06-.303.089l-.154.033-.077.016-.078.012a3.785 3.785 0 0 1-.627.046 4 4 0 0 1-1.817-.46 4.413 4.413 0 0 1-.54-.336 4.527 4.527 0 0 1-1.534-2.036l-.018-.047.039-.029A3.855 3.855 0 0 1 28 33.682a4.158 4.158 0 0 1 2.068.347c.324.145.63.331.916.547.284.217.544.468.782.739a7.024 7.024 0 0 1 1.135 1.844 9.056 9.056 0 0 1 .499 1.562c.037.178.072.358.099.54.052.361.093.724.123 1.088.018.182.03.365.043.547.011.182.025.364.033.546a49.643 49.643 0 0 1 .042 4.379 44.392 44.392 0 0 0 0-2.19 50.156 50.156 0 0 0-.088-2.186c-.01-.182-.025-.364-.038-.546-.016-.181-.029-.363-.048-.544a18.047 18.047 0 0 0-.133-1.084 8.81 8.81 0 0 0-.606-2.078 6.922 6.922 0 0 0-1.13-1.814 5.318 5.318 0 0 0-.772-.72c-.28-.21-.58-.39-.898-.53a4.05 4.05 0 0 0-2.017-.325c-.683.068-1.332.262-1.886.685a4.324 4.324 0 0 0 2.017 2.272 3.876 3.876 0 0 0 1.761.441c.203.002.406-.013.606-.045l.075-.012.074-.016.15-.032c.097-.028.196-.051.292-.087.097-.03.19-.07.285-.108.047-.02.093-.043.14-.064l.069-.033.068-.036c.045-.025.091-.047.135-.074l.133-.078.13-.084a5.856 5.856 0 0 0 .615-.474c.157-.136.31-.28.458-.428.298-.295.583-.608.873-.915.29-.308.586-.614.901-.897.158-.142.322-.277.491-.405a5.433 5.433 0 0 1 1.682-.854c.401-.122.813-.203 1.23-.233a5.832 5.832 0 0 1 2.46.354 6.085 6.085 0 0 1 2.116 1.36l.031.03-.016.04a7.077 7.077 0 0 1-.288.634 6.78 6.78 0 0 1-.356.594c-.13.19-.268.373-.417.547a6.218 6.218 0 0 1-2.773 1.877 6.038 6.038 0 0 1-2.636.268 5.887 5.887 0 0 1-2.497-.911l-.036-.024.032-.029c.372-.331.713-.701 1.059-1.066.347-.363.7-.724 1.101-1.024a4.498 4.498 0 0 1 2.032-.86c.242-.037.488-.055.733-.054Z"/><path stroke="#fff" stroke-width=".36" d="M38.855 34.063a4.58 4.58 0 0 0-2.745.943c-.395.302-.744.664-1.087 1.03-.342.368-.684.722-1.056 1.06a5.83 5.83 0 0 0 2.473.85 5.95 5.95 0 0 0 2.598-.279 6.119 6.119 0 0 0 2.255-1.371c.647-.618 1.18-1.313 1.51-2.161a5.964 5.964 0 0 0-2.076-1.328 5.703 5.703 0 0 0-2.408-.341 5.465 5.465 0 0 0-2.84 1.067 7.132 7.132 0 0 0-.481.398c-.31.279-.602.582-.891.89-.29.307-.576.619-.878.917-.15.15-.305.295-.466.434a5.99 5.99 0 0 1-.5.394c-.042.03-.086.061-.13.09-.045.028-.089.058-.134.085l-.137.08c-.045.029-.093.051-.14.076l-.07.037-.071.034-.144.066c-.098.04-.196.08-.296.112-.099.036-.202.06-.303.089l-.154.033-.077.016-.078.012a3.785 3.785 0 0 1-.627.046 4 4 0 0 1-1.817-.46 4.413 4.413 0 0 1-.54-.336 4.527 4.527 0 0 1-1.534-2.036l-.018-.047.039-.029A3.855 3.855 0 0 1 28 33.682a4.158 4.158 0 0 1 2.068.347c.324.145.63.331.916.547.284.217.544.468.782.739a7.024 7.024 0 0 1 1.135 1.844 9.056 9.056 0 0 1 .499 1.562c.037.178.072.358.099.54.052.361.093.724.123 1.088.018.182.03.365.043.547.011.182.025.364.033.546a49.643 49.643 0 0 1 .042 4.379 44.392 44.392 0 0 0 0-2.19 50.156 50.156 0 0 0-.088-2.186c-.01-.182-.025-.364-.038-.546-.016-.181-.029-.363-.048-.544a18.047 18.047 0 0 0-.133-1.084 8.81 8.81 0 0 0-.606-2.078 6.922 6.922 0 0 0-1.13-1.814 5.318 5.318 0 0 0-.772-.72c-.28-.21-.58-.39-.898-.53a4.05 4.05 0 0 0-2.017-.325c-.683.068-1.332.262-1.886.685a4.324 4.324 0 0 0 2.017 2.272 3.876 3.876 0 0 0 1.761.441c.203.002.406-.013.606-.045l.075-.012.074-.016.15-.032c.097-.028.196-.051.292-.087.097-.03.19-.07.285-.108.047-.02.093-.043.14-.064l.069-.033.068-.036c.045-.025.091-.047.135-.074l.133-.078.13-.084a5.856 5.856 0 0 0 .615-.474c.157-.136.31-.28.458-.428.298-.295.583-.608.873-.915.29-.308.586-.614.901-.897.158-.142.322-.277.491-.405a5.433 5.433 0 0 1 1.682-.854c.401-.122.813-.203 1.23-.233a5.832 5.832 0 0 1 2.46.354 6.085 6.085 0 0 1 2.116 1.36l.031.03-.016.04a7.077 7.077 0 0 1-.288.634 6.78 6.78 0 0 1-.356.594c-.13.19-.268.373-.417.547a6.218 6.218 0 0 1-2.773 1.877 6.038 6.038 0 0 1-2.636.268 5.887 5.887 0 0 1-2.497-.911l-.036-.024.032-.029c.372-.331.713-.701 1.059-1.066.347-.363.7-.724 1.101-1.024a4.498 4.498 0 0 1 2.032-.86c.242-.037.488-.055.733-.054Z" mask="url(#b)"/><defs><linearGradient id="a" x1="23.791" x2="45.849" y1="30.217" y2="31.705" gradientUnits="userSpaceOnUse"><stop stop-color="#30C917"/><stop offset="1" stop-color="#279A13"/></linearGradient></defs></svg>