<svg xmlns="http://www.w3.org/2000/svg" width="60" height="60" fill="none"><g clip-path="url(#a)"><path fill="url(#b)" fill-rule="evenodd" d="m60 1.316-.517 6.664a1.438 1.438 0 0 1-2.452.911l-1.5-1.5-9.975 9.987a4.144 4.144 0 0 1-5.854 0l-4.617-4.619a1.034 1.034 0 0 0-1.462 0L18.446 27.942a4.138 4.138 0 0 1-5.856 0l-2.547-2.549a1.034 1.034 0 0 0-1.462 0l-5.052 5.043a2.08 2.08 0 0 1-2.917 0 2.045 2.045 0 0 1 0-2.918l5.773-5.785a4.138 4.138 0 0 1 5.854 0l3.278 3.28 15.91-15.91a4.138 4.138 0 0 1 5.854 0l4.615 4.613a1.034 1.034 0 0 0 1.464 0l9.25-9.255-1.5-1.5A1.433 1.433 0 0 1 52.02.52l6.673-.52A1.23 1.23 0 0 1 60 1.316Z" clip-rule="evenodd"/><path fill="#F0C419" d="M15.517 55.86H3.103a2.069 2.069 0 1 0 0 4.137h12.414a2.069 2.069 0 1 0 0-4.138ZM36.206 55.86H23.793a2.069 2.069 0 1 0 0 4.137h12.413a2.069 2.069 0 0 0 0-4.138Z"/><path fill="#F3D55B" d="M36.206 51.723H23.793a2.069 2.069 0 1 0 0 4.138h12.413a2.069 2.069 0 0 0 0-4.138Z"/><path fill="#F0C419" d="M36.206 47.586H23.793a2.069 2.069 0 1 0 0 4.138h12.413a2.069 2.069 0 0 0 0-4.138ZM56.896 55.86H44.482a2.069 2.069 0 1 0 0 4.137h12.414a2.069 2.069 0 1 0 0-4.138Z"/><path fill="#F3D55B" d="M56.896 51.723H44.482a2.069 2.069 0 1 0 0 4.138h12.414a2.069 2.069 0 1 0 0-4.138Z"/><path fill="#F0C419" d="M56.896 47.586H44.482a2.069 2.069 0 1 0 0 4.138h12.414a2.069 2.069 0 1 0 0-4.138Z"/><path fill="#F3D55B" d="M56.896 43.445H44.482a2.069 2.069 0 1 0 0 4.138h12.414a2.069 2.069 0 1 0 0-4.138Z"/><path fill="#F0C419" d="M56.896 39.309H44.482a2.069 2.069 0 1 0 0 4.138h12.414a2.069 2.069 0 1 0 0-4.138Z"/><g filter="url(#c)"><circle cx="10" cy="45" r="9" fill="url(#d)"/><mask id="e" width="16" height="12" x="1.858" y="40.063" fill="#000" maskUnits="userSpaceOnUse"><path fill="#fff" d="M1.858 40.063h16v12h-16z"/><path d="M13.713 42.472a4.036 4.036 0 0 0-1.22.198 3.874 3.874 0 0 0-1.096.562c-.334.243-.628.536-.918.83-.289.296-.577.582-.891.854a5.08 5.08 0 0 0 2.087.685 5.248 5.248 0 0 0 4.096-1.33c.546-.497.995-1.057 1.274-1.74a5.068 5.068 0 0 0-1.752-1.07 5.024 5.024 0 0 0-2.032-.275 4.799 4.799 0 0 0-1.963.584c-.15.084-.295.174-.435.276-.139.1-.275.207-.405.32-.262.225-.508.47-.752.717-.244.248-.486.499-.74.74-.128.12-.258.237-.394.348-.135.113-.275.22-.422.318-.036.025-.072.05-.11.072l-.113.07-.115.064c-.039.023-.079.04-.118.061l-.06.03-.06.027-.121.053c-.083.032-.165.065-.25.09-.083.03-.17.049-.255.072l-.13.026-.066.013-.066.01a3.347 3.347 0 0 1-.529.037 3.525 3.525 0 0 1-1.988-.641 3.67 3.67 0 0 1-1.296-1.64l-.015-.038.033-.023a3.346 3.346 0 0 1 1.662-.607 3.657 3.657 0 0 1 1.745.28c.274.117.532.267.773.441.24.175.46.377.66.595.399.439.716.947.958 1.486a6.535 6.535 0 0 1 .421 1.258 6.9 6.9 0 0 1 .084.435c.044.291.078.584.104.877.015.146.024.293.036.44a38.268 38.268 0 0 1 .063 3.968 34.029 34.029 0 0 0 .001-1.764 38.6 38.6 0 0 0-.075-1.761c-.009-.147-.021-.293-.032-.44-.014-.146-.024-.293-.04-.439a13.883 13.883 0 0 0-.113-.872 6.803 6.803 0 0 0-.511-1.675 5.542 5.542 0 0 0-.954-1.46 4.408 4.408 0 0 0-.651-.58 3.919 3.919 0 0 0-.758-.428 3.564 3.564 0 0 0-1.703-.262c-.576.054-1.123.211-1.591.552.253.638.7 1.175 1.26 1.568a3.427 3.427 0 0 0 1.928.618c.171.001.343-.011.511-.037l.064-.01.063-.012.125-.026c.083-.023.166-.041.247-.07.082-.024.161-.057.241-.087.04-.016.078-.035.118-.052l.058-.026.057-.03c.038-.02.078-.037.115-.059l.111-.063.11-.068c.037-.022.072-.046.108-.07.142-.096.279-.201.411-.312.133-.11.261-.226.387-.345.252-.237.492-.489.737-.736.245-.248.494-.495.76-.723.133-.115.272-.223.415-.326a4.6 4.6 0 0 1 .447-.282 4.92 4.92 0 0 1 2.01-.594 5.136 5.136 0 0 1 2.076.286 5.17 5.17 0 0 1 1.786 1.095l.027.024-.014.033a5.601 5.601 0 0 1-.244.51 5.419 5.419 0 0 1-.3.478c-.11.153-.226.301-.351.442a5.302 5.302 0 0 1-2.34 1.512 5.327 5.327 0 0 1-2.225.215 5.12 5.12 0 0 1-2.108-.734l-.03-.019.027-.023c.314-.267.601-.565.893-.859.293-.292.592-.583.93-.825a3.86 3.86 0 0 1 1.11-.553 4.045 4.045 0 0 1 1.223-.184Z"/></mask><path fill="#fff" d="M13.713 42.472a4.036 4.036 0 0 0-1.22.198 3.874 3.874 0 0 0-1.096.562c-.334.243-.628.536-.918.83-.289.296-.577.582-.891.854a5.08 5.08 0 0 0 2.087.685 5.248 5.248 0 0 0 4.096-1.33c.546-.497.995-1.057 1.274-1.74a5.068 5.068 0 0 0-1.752-1.07 5.024 5.024 0 0 0-2.032-.275 4.799 4.799 0 0 0-1.963.584c-.15.084-.295.174-.435.276-.139.1-.275.207-.405.32-.262.225-.508.47-.752.717-.244.248-.486.499-.74.74-.128.12-.258.237-.394.348-.135.113-.275.22-.422.318-.036.025-.072.05-.11.072l-.113.07-.115.064c-.039.023-.079.04-.118.061l-.06.03-.06.027-.121.053c-.083.032-.165.065-.25.09-.083.03-.17.049-.255.072l-.13.026-.066.013-.066.01a3.347 3.347 0 0 1-.529.037 3.525 3.525 0 0 1-1.988-.641 3.67 3.67 0 0 1-1.296-1.64l-.015-.038.033-.023a3.346 3.346 0 0 1 1.662-.607 3.657 3.657 0 0 1 1.745.28c.274.117.532.267.773.441.24.175.46.377.66.595.399.439.716.947.958 1.486a6.535 6.535 0 0 1 .421 1.258 6.9 6.9 0 0 1 .084.435c.044.291.078.584.104.877.015.146.024.293.036.44a38.268 38.268 0 0 1 .063 3.968 34.029 34.029 0 0 0 .001-1.764 38.6 38.6 0 0 0-.075-1.761c-.009-.147-.021-.293-.032-.44-.014-.146-.024-.293-.04-.439a13.883 13.883 0 0 0-.113-.872 6.803 6.803 0 0 0-.511-1.675 5.542 5.542 0 0 0-.954-1.46 4.408 4.408 0 0 0-.651-.58 3.919 3.919 0 0 0-.758-.428 3.564 3.564 0 0 0-1.703-.262c-.576.054-1.123.211-1.591.552.253.638.7 1.175 1.26 1.568a3.427 3.427 0 0 0 1.928.618c.171.001.343-.011.511-.037l.064-.01.063-.012.125-.026c.083-.023.166-.041.247-.07.082-.024.161-.057.241-.087.04-.016.078-.035.118-.052l.058-.026.057-.03c.038-.02.078-.037.115-.059l.111-.063.11-.068c.037-.022.072-.046.108-.07.142-.096.279-.201.411-.312.133-.11.261-.226.387-.345.252-.237.492-.489.737-.736.245-.248.494-.495.76-.723.133-.115.272-.223.415-.326a4.6 4.6 0 0 1 .447-.282 4.92 4.92 0 0 1 2.01-.594 5.136 5.136 0 0 1 2.076.286 5.17 5.17 0 0 1 1.786 1.095l.027.024-.014.033a5.601 5.601 0 0 1-.244.51 5.419 5.419 0 0 1-.3.478c-.11.153-.226.301-.351.442a5.302 5.302 0 0 1-2.34 1.512 5.327 5.327 0 0 1-2.225.215 5.12 5.12 0 0 1-2.108-.734l-.03-.019.027-.023c.314-.267.601-.565.893-.859.293-.292.592-.583.93-.825a3.86 3.86 0 0 1 1.11-.553 4.045 4.045 0 0 1 1.223-.184Z"/><path stroke="#fff" stroke-width=".307" d="M13.713 42.472a4.036 4.036 0 0 0-1.22.198 3.874 3.874 0 0 0-1.096.562c-.334.243-.628.536-.918.83-.289.296-.577.582-.891.854a5.08 5.08 0 0 0 2.087.685 5.248 5.248 0 0 0 4.096-1.33c.546-.497.995-1.057 1.274-1.74a5.068 5.068 0 0 0-1.752-1.07 5.024 5.024 0 0 0-2.032-.275 4.799 4.799 0 0 0-1.963.584c-.15.084-.295.174-.435.276-.139.1-.275.207-.405.32-.262.225-.508.47-.752.717-.244.248-.486.499-.74.74-.128.12-.258.237-.394.348-.135.113-.275.22-.422.318-.036.025-.072.05-.11.072l-.113.07-.115.064c-.039.023-.079.04-.118.061l-.06.03-.06.027-.121.053c-.083.032-.165.065-.25.09-.083.03-.17.049-.255.072l-.13.026-.066.013-.066.01a3.347 3.347 0 0 1-.529.037 3.525 3.525 0 0 1-1.988-.641 3.67 3.67 0 0 1-1.296-1.64l-.015-.038.033-.023a3.346 3.346 0 0 1 1.662-.607 3.657 3.657 0 0 1 1.745.28c.274.117.532.267.773.441.24.175.46.377.66.595.399.439.716.947.958 1.486a6.535 6.535 0 0 1 .421 1.258 6.9 6.9 0 0 1 .084.435c.044.291.078.584.104.877.015.146.024.293.036.44a38.268 38.268 0 0 1 .063 3.968 34.029 34.029 0 0 0 .001-1.764 38.6 38.6 0 0 0-.075-1.761c-.009-.147-.021-.293-.032-.44-.014-.146-.024-.293-.04-.439a13.883 13.883 0 0 0-.113-.872 6.803 6.803 0 0 0-.511-1.675 5.542 5.542 0 0 0-.954-1.46 4.408 4.408 0 0 0-.651-.58 3.919 3.919 0 0 0-.758-.428 3.564 3.564 0 0 0-1.703-.262c-.576.054-1.123.211-1.591.552.253.638.7 1.175 1.26 1.568a3.427 3.427 0 0 0 1.928.618c.171.001.343-.011.511-.037l.064-.01.063-.012.125-.026c.083-.023.166-.041.247-.07.082-.024.161-.057.241-.087.04-.016.078-.035.118-.052l.058-.026.057-.03c.038-.02.078-.037.115-.059l.111-.063.11-.068c.037-.022.072-.046.108-.07.142-.096.279-.201.411-.312.133-.11.261-.226.387-.345.252-.237.492-.489.737-.736.245-.248.494-.495.76-.723.133-.115.272-.223.415-.326a4.6 4.6 0 0 1 .447-.282 4.92 4.92 0 0 1 2.01-.594 5.136 5.136 0 0 1 2.076.286 5.17 5.17 0 0 1 1.786 1.095l.027.024-.014.033a5.601 5.601 0 0 1-.244.51 5.419 5.419 0 0 1-.3.478c-.11.153-.226.301-.351.442a5.302 5.302 0 0 1-2.34 1.512 5.327 5.327 0 0 1-2.225.215 5.12 5.12 0 0 1-2.108-.734l-.03-.019.027-.023c.314-.267.601-.565.893-.859.293-.292.592-.583.93-.825a3.86 3.86 0 0 1 1.11-.553 4.045 4.045 0 0 1 1.223-.184Z" mask="url(#e)"/></g><g filter="url(#f)"><circle cx="30" cy="36" r="9" fill="url(#g)"/><mask id="h" width="16" height="12" x="21.858" y="31.063" fill="#000" maskUnits="userSpaceOnUse"><path fill="#fff" d="M21.858 31.063h16v12h-16z"/><path d="M33.713 33.472a4.036 4.036 0 0 0-1.22.198 3.874 3.874 0 0 0-1.096.562c-.334.243-.628.536-.918.83-.289.296-.577.582-.891.854a5.079 5.079 0 0 0 2.087.685 5.248 5.248 0 0 0 4.096-1.33c.546-.497.995-1.057 1.274-1.74a5.068 5.068 0 0 0-1.752-1.07 5.024 5.024 0 0 0-2.032-.275 4.799 4.799 0 0 0-1.963.584c-.15.084-.295.174-.435.276-.139.1-.275.207-.405.32-.262.225-.508.47-.752.717-.244.248-.486.499-.74.74a7.81 7.81 0 0 1-.394.348c-.135.113-.275.22-.421.318-.037.025-.073.05-.111.072l-.113.07-.115.064c-.039.023-.079.04-.118.061l-.06.03-.06.027-.121.053c-.083.032-.165.065-.25.09-.084.03-.17.049-.255.072l-.13.026-.066.013-.066.01a3.345 3.345 0 0 1-.529.037 3.526 3.526 0 0 1-1.988-.641 3.67 3.67 0 0 1-1.296-1.64l-.015-.038.033-.023a3.346 3.346 0 0 1 1.662-.607 3.657 3.657 0 0 1 1.745.28c.274.117.532.267.773.441.24.175.46.377.66.595.399.439.716.947.958 1.486a6.543 6.543 0 0 1 .421 1.258c.032.144.061.289.084.435.044.291.078.584.104.877.015.146.024.293.036.44a38.423 38.423 0 0 1 .063 3.968 34.118 34.118 0 0 0 .001-1.764 38.5 38.5 0 0 0-.075-1.761c-.009-.147-.021-.293-.032-.44-.014-.146-.024-.293-.04-.439a13.846 13.846 0 0 0-.113-.872 6.788 6.788 0 0 0-.511-1.675 5.542 5.542 0 0 0-.954-1.46 4.405 4.405 0 0 0-.651-.58 3.918 3.918 0 0 0-.758-.428 3.564 3.564 0 0 0-1.703-.262c-.576.054-1.123.211-1.591.552.253.638.7 1.175 1.26 1.568a3.431 3.431 0 0 0 1.928.618c.171.001.342-.011.511-.037l.064-.01.063-.012.125-.026c.083-.023.166-.041.247-.07.082-.024.161-.057.241-.087.04-.016.078-.035.118-.052l.058-.026.057-.03c.038-.02.078-.037.115-.059l.111-.063.11-.068c.037-.022.072-.046.107-.07.143-.096.28-.201.412-.312.133-.11.261-.226.387-.345.252-.237.492-.489.737-.736.245-.248.494-.495.76-.723.133-.115.272-.223.415-.326a4.6 4.6 0 0 1 .447-.282 4.92 4.92 0 0 1 2.01-.594 5.136 5.136 0 0 1 2.076.286 5.17 5.17 0 0 1 1.786 1.095l.027.024-.014.033a5.601 5.601 0 0 1-.243.51 5.419 5.419 0 0 1-.3.478c-.11.153-.227.301-.352.442a5.302 5.302 0 0 1-2.34 1.512 5.327 5.327 0 0 1-2.225.215 5.12 5.12 0 0 1-2.108-.734l-.03-.019.027-.023c.314-.267.601-.565.893-.859.293-.292.592-.583.93-.825a3.86 3.86 0 0 1 1.11-.553 4.045 4.045 0 0 1 1.223-.184Z"/></mask><path fill="#fff" d="M33.713 33.472a4.036 4.036 0 0 0-1.22.198 3.874 3.874 0 0 0-1.096.562c-.334.243-.628.536-.918.83-.289.296-.577.582-.891.854a5.079 5.079 0 0 0 2.087.685 5.248 5.248 0 0 0 4.096-1.33c.546-.497.995-1.057 1.274-1.74a5.068 5.068 0 0 0-1.752-1.07 5.024 5.024 0 0 0-2.032-.275 4.799 4.799 0 0 0-1.963.584c-.15.084-.295.174-.435.276-.139.1-.275.207-.405.32-.262.225-.508.47-.752.717-.244.248-.486.499-.74.74a7.81 7.81 0 0 1-.394.348c-.135.113-.275.22-.421.318-.037.025-.073.05-.111.072l-.113.07-.115.064c-.039.023-.079.04-.118.061l-.06.03-.06.027-.121.053c-.083.032-.165.065-.25.09-.084.03-.17.049-.255.072l-.13.026-.066.013-.066.01a3.345 3.345 0 0 1-.529.037 3.526 3.526 0 0 1-1.988-.641 3.67 3.67 0 0 1-1.296-1.64l-.015-.038.033-.023a3.346 3.346 0 0 1 1.662-.607 3.657 3.657 0 0 1 1.745.28c.274.117.532.267.773.441.24.175.46.377.66.595.399.439.716.947.958 1.486a6.543 6.543 0 0 1 .421 1.258c.032.144.061.289.084.435.044.291.078.584.104.877.015.146.024.293.036.44a38.423 38.423 0 0 1 .063 3.968 34.118 34.118 0 0 0 .001-1.764 38.5 38.5 0 0 0-.075-1.761c-.009-.147-.021-.293-.032-.44-.014-.146-.024-.293-.04-.439a13.846 13.846 0 0 0-.113-.872 6.788 6.788 0 0 0-.511-1.675 5.542 5.542 0 0 0-.954-1.46 4.405 4.405 0 0 0-.651-.58 3.918 3.918 0 0 0-.758-.428 3.564 3.564 0 0 0-1.703-.262c-.576.054-1.123.211-1.591.552.253.638.7 1.175 1.26 1.568a3.431 3.431 0 0 0 1.928.618c.171.001.342-.011.511-.037l.064-.01.063-.012.125-.026c.083-.023.166-.041.247-.07.082-.024.161-.057.241-.087.04-.016.078-.035.118-.052l.058-.026.057-.03c.038-.02.078-.037.115-.059l.111-.063.11-.068c.037-.022.072-.046.107-.07.143-.096.28-.201.412-.312.133-.11.261-.226.387-.345.252-.237.492-.489.737-.736.245-.248.494-.495.76-.723.133-.115.272-.223.415-.326a4.6 4.6 0 0 1 .447-.282 4.92 4.92 0 0 1 2.01-.594 5.136 5.136 0 0 1 2.076.286 5.17 5.17 0 0 1 1.786 1.095l.027.024-.014.033a5.601 5.601 0 0 1-.243.51 5.419 5.419 0 0 1-.3.478c-.11.153-.227.301-.352.442a5.302 5.302 0 0 1-2.34 1.512 5.327 5.327 0 0 1-2.225.215 5.12 5.12 0 0 1-2.108-.734l-.03-.019.027-.023c.314-.267.601-.565.893-.859.293-.292.592-.583.93-.825a3.86 3.86 0 0 1 1.11-.553 4.045 4.045 0 0 1 1.223-.184Z"/><path stroke="#fff" stroke-width=".307" d="M33.713 33.472a4.036 4.036 0 0 0-1.22.198 3.874 3.874 0 0 0-1.096.562c-.334.243-.628.536-.918.83-.289.296-.577.582-.891.854a5.079 5.079 0 0 0 2.087.685 5.248 5.248 0 0 0 4.096-1.33c.546-.497.995-1.057 1.274-1.74a5.068 5.068 0 0 0-1.752-1.07 5.024 5.024 0 0 0-2.032-.275 4.799 4.799 0 0 0-1.963.584c-.15.084-.295.174-.435.276-.139.1-.275.207-.405.32-.262.225-.508.47-.752.717-.244.248-.486.499-.74.74a7.81 7.81 0 0 1-.394.348c-.135.113-.275.22-.421.318-.037.025-.073.05-.111.072l-.113.07-.115.064c-.039.023-.079.04-.118.061l-.06.03-.06.027-.121.053c-.083.032-.165.065-.25.09-.084.03-.17.049-.255.072l-.13.026-.066.013-.066.01a3.345 3.345 0 0 1-.529.037 3.526 3.526 0 0 1-1.988-.641 3.67 3.67 0 0 1-1.296-1.64l-.015-.038.033-.023a3.346 3.346 0 0 1 1.662-.607 3.657 3.657 0 0 1 1.745.28c.274.117.532.267.773.441.24.175.46.377.66.595.399.439.716.947.958 1.486a6.543 6.543 0 0 1 .421 1.258c.032.144.061.289.084.435.044.291.078.584.104.877.015.146.024.293.036.44a38.423 38.423 0 0 1 .063 3.968 34.118 34.118 0 0 0 .001-1.764 38.5 38.5 0 0 0-.075-1.761c-.009-.147-.021-.293-.032-.44-.014-.146-.024-.293-.04-.439a13.846 13.846 0 0 0-.113-.872 6.788 6.788 0 0 0-.511-1.675 5.542 5.542 0 0 0-.954-1.46 4.405 4.405 0 0 0-.651-.58 3.918 3.918 0 0 0-.758-.428 3.564 3.564 0 0 0-1.703-.262c-.576.054-1.123.211-1.591.552.253.638.7 1.175 1.26 1.568a3.431 3.431 0 0 0 1.928.618c.171.001.342-.011.511-.037l.064-.01.063-.012.125-.026c.083-.023.166-.041.247-.07.082-.024.161-.057.241-.087.04-.016.078-.035.118-.052l.058-.026.057-.03c.038-.02.078-.037.115-.059l.111-.063.11-.068c.037-.022.072-.046.107-.07.143-.096.28-.201.412-.312.133-.11.261-.226.387-.345.252-.237.492-.489.737-.736.245-.248.494-.495.76-.723.133-.115.272-.223.415-.326a4.6 4.6 0 0 1 .447-.282 4.92 4.92 0 0 1 2.01-.594 5.136 5.136 0 0 1 2.076.286 5.17 5.17 0 0 1 1.786 1.095l.027.024-.014.033a5.601 5.601 0 0 1-.243.51 5.419 5.419 0 0 1-.3.478c-.11.153-.227.301-.352.442a5.302 5.302 0 0 1-2.34 1.512 5.327 5.327 0 0 1-2.225.215 5.12 5.12 0 0 1-2.108-.734l-.03-.019.027-.023c.314-.267.601-.565.893-.859.293-.292.592-.583.93-.825a3.86 3.86 0 0 1 1.11-.553 4.045 4.045 0 0 1 1.223-.184Z" mask="url(#h)"/></g><g filter="url(#i)"><circle cx="51" cy="28" r="9" fill="url(#j)"/><mask id="k" width="16" height="12" x="42.858" y="23.063" fill="#000" maskUnits="userSpaceOnUse"><path fill="#fff" d="M42.858 23.063h16v12h-16z"/><path d="M54.713 25.473a4.036 4.036 0 0 0-1.22.198 3.874 3.874 0 0 0-1.096.561c-.334.244-.628.536-.918.83-.289.296-.577.581-.891.854a5.079 5.079 0 0 0 2.087.685 5.248 5.248 0 0 0 4.096-1.33c.546-.497.995-1.057 1.274-1.74a5.068 5.068 0 0 0-1.752-1.07 5.024 5.024 0 0 0-2.032-.275 4.799 4.799 0 0 0-1.963.584c-.15.084-.295.174-.435.276-.139.1-.275.207-.405.32-.262.225-.508.47-.752.717-.244.248-.486.499-.74.74a7.81 7.81 0 0 1-.394.348c-.135.113-.275.22-.422.318-.036.024-.072.05-.11.072l-.113.07-.115.064c-.038.023-.079.04-.118.061l-.06.03-.06.027c-.04.018-.08.037-.121.053-.083.032-.165.065-.25.09-.084.03-.17.049-.256.072l-.13.026-.065.013-.066.01a3.345 3.345 0 0 1-.529.037 3.526 3.526 0 0 1-1.988-.641 3.67 3.67 0 0 1-1.296-1.64l-.015-.038.033-.023a3.346 3.346 0 0 1 1.662-.607 3.657 3.657 0 0 1 1.745.28c.274.117.532.267.773.441.24.175.46.377.66.595.399.439.716.947.958 1.485a6.543 6.543 0 0 1 .421 1.259c.032.144.061.289.084.435.044.291.078.584.104.877.015.146.024.293.036.44.01.147.02.293.028.44a38.423 38.423 0 0 1 .035 3.528 34.118 34.118 0 0 0 .001-1.764 38.5 38.5 0 0 0-.075-1.761c-.009-.147-.021-.293-.032-.44-.014-.146-.024-.293-.04-.439a13.846 13.846 0 0 0-.113-.872 6.788 6.788 0 0 0-.511-1.675 5.542 5.542 0 0 0-.954-1.46 4.405 4.405 0 0 0-.651-.58 3.918 3.918 0 0 0-.758-.428 3.564 3.564 0 0 0-1.703-.262c-.576.055-1.123.212-1.591.552.253.638.7 1.175 1.26 1.568a3.431 3.431 0 0 0 1.928.618c.171.001.343-.011.511-.037l.064-.01.063-.012.125-.026c.083-.023.166-.041.247-.07.082-.024.161-.057.241-.087.04-.016.078-.035.118-.052l.058-.026.057-.03c.038-.02.078-.037.115-.059l.111-.063.11-.068c.037-.022.072-.046.108-.07.142-.096.279-.201.411-.312.133-.11.261-.226.387-.345.252-.237.492-.489.737-.736.245-.248.494-.495.76-.723.133-.115.272-.223.415-.326a4.6 4.6 0 0 1 .447-.282 4.92 4.92 0 0 1 2.01-.594 5.136 5.136 0 0 1 2.076.286 5.17 5.17 0 0 1 1.786 1.095l.027.024-.014.033a5.601 5.601 0 0 1-.243.51 5.419 5.419 0 0 1-.3.478c-.11.153-.227.301-.352.442a5.302 5.302 0 0 1-2.34 1.512 5.327 5.327 0 0 1-2.225.215 5.12 5.12 0 0 1-2.108-.734l-.03-.019.027-.023c.314-.267.601-.565.893-.859.293-.292.592-.583.93-.825a3.86 3.86 0 0 1 1.11-.553 4.045 4.045 0 0 1 1.223-.183Z"/></mask><path fill="#fff" d="M54.713 25.473a4.036 4.036 0 0 0-1.22.198 3.874 3.874 0 0 0-1.096.561c-.334.244-.628.536-.918.83-.289.296-.577.581-.891.854a5.079 5.079 0 0 0 2.087.685 5.248 5.248 0 0 0 4.096-1.33c.546-.497.995-1.057 1.274-1.74a5.068 5.068 0 0 0-1.752-1.07 5.024 5.024 0 0 0-2.032-.275 4.799 4.799 0 0 0-1.963.584c-.15.084-.295.174-.435.276-.139.1-.275.207-.405.32-.262.225-.508.47-.752.717-.244.248-.486.499-.74.74a7.81 7.81 0 0 1-.394.348c-.135.113-.275.22-.422.318-.036.024-.072.05-.11.072l-.113.07-.115.064c-.038.023-.079.04-.118.061l-.06.03-.06.027c-.04.018-.08.037-.121.053-.083.032-.165.065-.25.09-.084.03-.17.049-.256.072l-.13.026-.065.013-.066.01a3.345 3.345 0 0 1-.529.037 3.526 3.526 0 0 1-1.988-.641 3.67 3.67 0 0 1-1.296-1.64l-.015-.038.033-.023a3.346 3.346 0 0 1 1.662-.607 3.657 3.657 0 0 1 1.745.28c.274.117.532.267.773.441.24.175.46.377.66.595.399.439.716.947.958 1.485a6.543 6.543 0 0 1 .421 1.259c.032.144.061.289.084.435.044.291.078.584.104.877.015.146.024.293.036.44.01.147.02.293.028.44a38.423 38.423 0 0 1 .035 3.528 34.118 34.118 0 0 0 .001-1.764 38.5 38.5 0 0 0-.075-1.761c-.009-.147-.021-.293-.032-.44-.014-.146-.024-.293-.04-.439a13.846 13.846 0 0 0-.113-.872 6.788 6.788 0 0 0-.511-1.675 5.542 5.542 0 0 0-.954-1.46 4.405 4.405 0 0 0-.651-.58 3.918 3.918 0 0 0-.758-.428 3.564 3.564 0 0 0-1.703-.262c-.576.055-1.123.212-1.591.552.253.638.7 1.175 1.26 1.568a3.431 3.431 0 0 0 1.928.618c.171.001.343-.011.511-.037l.064-.01.063-.012.125-.026c.083-.023.166-.041.247-.07.082-.024.161-.057.241-.087.04-.016.078-.035.118-.052l.058-.026.057-.03c.038-.02.078-.037.115-.059l.111-.063.11-.068c.037-.022.072-.046.108-.07.142-.096.279-.201.411-.312.133-.11.261-.226.387-.345.252-.237.492-.489.737-.736.245-.248.494-.495.76-.723.133-.115.272-.223.415-.326a4.6 4.6 0 0 1 .447-.282 4.92 4.92 0 0 1 2.01-.594 5.136 5.136 0 0 1 2.076.286 5.17 5.17 0 0 1 1.786 1.095l.027.024-.014.033a5.601 5.601 0 0 1-.243.51 5.419 5.419 0 0 1-.3.478c-.11.153-.227.301-.352.442a5.302 5.302 0 0 1-2.34 1.512 5.327 5.327 0 0 1-2.225.215 5.12 5.12 0 0 1-2.108-.734l-.03-.019.027-.023c.314-.267.601-.565.893-.859.293-.292.592-.583.93-.825a3.86 3.86 0 0 1 1.11-.553 4.045 4.045 0 0 1 1.223-.183Z"/><path stroke="#fff" stroke-width=".307" d="M54.713 25.473a4.036 4.036 0 0 0-1.22.198 3.874 3.874 0 0 0-1.096.561c-.334.244-.628.536-.918.83-.289.296-.577.581-.891.854a5.079 5.079 0 0 0 2.087.685 5.248 5.248 0 0 0 4.096-1.33c.546-.497.995-1.057 1.274-1.74a5.068 5.068 0 0 0-1.752-1.07 5.024 5.024 0 0 0-2.032-.275 4.799 4.799 0 0 0-1.963.584c-.15.084-.295.174-.435.276-.139.1-.275.207-.405.32-.262.225-.508.47-.752.717-.244.248-.486.499-.74.74a7.81 7.81 0 0 1-.394.348c-.135.113-.275.22-.422.318-.036.024-.072.05-.11.072l-.113.07-.115.064c-.038.023-.079.04-.118.061l-.06.03-.06.027c-.04.018-.08.037-.121.053-.083.032-.165.065-.25.09-.084.03-.17.049-.256.072l-.13.026-.065.013-.066.01a3.345 3.345 0 0 1-.529.037 3.526 3.526 0 0 1-1.988-.641 3.67 3.67 0 0 1-1.296-1.64l-.015-.038.033-.023a3.346 3.346 0 0 1 1.662-.607 3.657 3.657 0 0 1 1.745.28c.274.117.532.267.773.441.24.175.46.377.66.595.399.439.716.947.958 1.485a6.543 6.543 0 0 1 .421 1.259c.032.144.061.289.084.435.044.291.078.584.104.877.015.146.024.293.036.44.01.147.02.293.028.44a38.423 38.423 0 0 1 .035 3.528 34.118 34.118 0 0 0 .001-1.764 38.5 38.5 0 0 0-.075-1.761c-.009-.147-.021-.293-.032-.44-.014-.146-.024-.293-.04-.439a13.846 13.846 0 0 0-.113-.872 6.788 6.788 0 0 0-.511-1.675 5.542 5.542 0 0 0-.954-1.46 4.405 4.405 0 0 0-.651-.58 3.918 3.918 0 0 0-.758-.428 3.564 3.564 0 0 0-1.703-.262c-.576.055-1.123.212-1.591.552.253.638.7 1.175 1.26 1.568a3.431 3.431 0 0 0 1.928.618c.171.001.343-.011.511-.037l.064-.01.063-.012.125-.026c.083-.023.166-.041.247-.07.082-.024.161-.057.241-.087.04-.016.078-.035.118-.052l.058-.026.057-.03c.038-.02.078-.037.115-.059l.111-.063.11-.068c.037-.022.072-.046.108-.07.142-.096.279-.201.411-.312.133-.11.261-.226.387-.345.252-.237.492-.489.737-.736.245-.248.494-.495.76-.723.133-.115.272-.223.415-.326a4.6 4.6 0 0 1 .447-.282 4.92 4.92 0 0 1 2.01-.594 5.136 5.136 0 0 1 2.076.286 5.17 5.17 0 0 1 1.786 1.095l.027.024-.014.033a5.601 5.601 0 0 1-.243.51 5.419 5.419 0 0 1-.3.478c-.11.153-.227.301-.352.442a5.302 5.302 0 0 1-2.34 1.512 5.327 5.327 0 0 1-2.225.215 5.12 5.12 0 0 1-2.108-.734l-.03-.019.027-.023c.314-.267.601-.565.893-.859.293-.292.592-.583.93-.825a3.86 3.86 0 0 1 1.11-.553 4.045 4.045 0 0 1 1.223-.183Z" mask="url(#k)"/></g></g><defs><linearGradient id="b" x1="0" x2="61.195" y1="5.816" y2="14.18" gradientUnits="userSpaceOnUse"><stop stop-color="#30C917"/><stop offset="1" stop-color="#279A13"/></linearGradient><linearGradient id="d" x1="1" x2="19.608" y1="39.375" y2="40.691" gradientUnits="userSpaceOnUse"><stop stop-color="#30C917"/><stop offset="1" stop-color="#279A13"/></linearGradient><linearGradient id="g" x1="21" x2="39.608" y1="30.375" y2="31.691" gradientUnits="userSpaceOnUse"><stop stop-color="#30C917"/><stop offset="1" stop-color="#279A13"/></linearGradient><linearGradient id="j" x1="42" x2="60.608" y1="22.375" y2="23.691" gradientUnits="userSpaceOnUse"><stop stop-color="#30C917"/><stop offset="1" stop-color="#279A13"/></linearGradient><filter id="c" width="31.714" height="31.714" x="-5.857" y="30" color-interpolation-filters="sRGB" filterUnits="userSpaceOnUse"><feFlood flood-opacity="0" result="BackgroundImageFix"/><feColorMatrix in="SourceAlpha" result="hardAlpha" values="0 0 0 0 0 0 0 0 0 0 0 0 0 0 0 0 0 0 127 0"/><feOffset dy=".857"/><feGaussianBlur stdDeviation="3.429"/><feComposite in2="hardAlpha" operator="out"/><feColorMatrix values="0 0 0 0 0.104167 0 0 0 0 0.066116 0 0 0 0 0.030816 0 0 0 0.12 0"/><feBlend in2="BackgroundImageFix" result="effect1_dropShadow_300_675"/><feBlend in="SourceGraphic" in2="effect1_dropShadow_300_675" result="shape"/></filter><filter id="f" width="31.714" height="31.714" x="14.143" y="21" color-interpolation-filters="sRGB" filterUnits="userSpaceOnUse"><feFlood flood-opacity="0" result="BackgroundImageFix"/><feColorMatrix in="SourceAlpha" result="hardAlpha" values="0 0 0 0 0 0 0 0 0 0 0 0 0 0 0 0 0 0 127 0"/><feOffset dy=".857"/><feGaussianBlur stdDeviation="3.429"/><feComposite in2="hardAlpha" operator="out"/><feColorMatrix values="0 0 0 0 0.104167 0 0 0 0 0.066116 0 0 0 0 0.030816 0 0 0 0.12 0"/><feBlend in2="BackgroundImageFix" result="effect1_dropShadow_300_675"/><feBlend in="SourceGraphic" in2="effect1_dropShadow_300_675" result="shape"/></filter><filter id="i" width="31.714" height="31.714" x="35.143" y="13" color-interpolation-filters="sRGB" filterUnits="userSpaceOnUse"><feFlood flood-opacity="0" result="BackgroundImageFix"/><feColorMatrix in="SourceAlpha" result="hardAlpha" values="0 0 0 0 0 0 0 0 0 0 0 0 0 0 0 0 0 0 127 0"/><feOffset dy=".857"/><feGaussianBlur stdDeviation="3.429"/><feComposite in2="hardAlpha" operator="out"/><feColorMatrix values="0 0 0 0 0.104167 0 0 0 0 0.066116 0 0 0 0 0.030816 0 0 0 0.12 0"/><feBlend in2="BackgroundImageFix" result="effect1_dropShadow_300_675"/><feBlend in="SourceGraphic" in2="effect1_dropShadow_300_675" result="shape"/></filter><clipPath id="a"><path fill="#fff" d="M0 0h60v60H0z"/></clipPath></defs></svg>