<svg xmlns="http://www.w3.org/2000/svg" width="60" height="60" fill="none"><g clip-path="url(#a)"><path fill="#5A4146" d="M43.549 26.614v.68c0 .831.134 1.658.397 2.447l1.538 4.615h2.904V23.711h-1.936a2.903 2.903 0 0 0-2.903 2.903Z"/><path fill="#5A4146" d="m56.798 28.623-1.637 5.732-7.742-6.774a1.935 1.935 0 0 1-1.936-1.936c0-1.603 1.3-2.903 2.904-2.903h6.774c1.069 0 1.935.867 1.935 1.936v1.819c0 .719-.1 1.435-.298 2.126Z"/><path fill="#E6AF78" d="M53.225 37.258H47.42v4.283h5.806v-4.283Z"/><path fill="#E6AF78" d="M47.419 39.035a7.693 7.693 0 0 0 5.806 0v-1.777H47.42v1.777Z"/><path fill="#D5DCED" d="m57.895 40.94-4.67-1.334-2.902 1.926-2.903-1.926-4.669 1.333a2.903 2.903 0 0 0-2.105 2.792v7.075c0 .535.433.968.967.968h17.42a.968.968 0 0 0 .967-.968v-7.075c0-1.296-.859-2.436-2.105-2.792Z"/><path fill="#AFB9D2" d="M51.29 51.776h-1.935l.483-10.233h.968l.484 10.233Z"/><path fill="#F0C087" d="M50.323 38.227a5.806 5.806 0 0 1-5.806-5.806v-1.134c0-.513.203-1.006.566-1.369l1.755-1.755c.372-.371.88-.585 1.405-.568 3.094.097 5.832.76 7.329 2.222.366.358.557.858.557 1.37v1.234c0 3.206-2.6 5.806-5.806 5.806Z"/><path fill="#F0C087" d="M47.42 31.527c0-1.116.937-2.004 2.051-1.933 1.954.125 4.853.451 6.632 1.307a1.87 1.87 0 0 0-.531-1.084c-1.497-1.462-4.235-2.125-7.329-2.222a1.913 1.913 0 0 0-1.405.568l-1.754 1.755a1.935 1.935 0 0 0-.567 1.369v1.133a5.805 5.805 0 0 0 4.197 5.576 5.759 5.759 0 0 1-1.294-3.64v-2.829Z"/><path fill="#C7CFE2" d="M56.129 46.614c0-.77.306-1.508.85-2.053l2.491-2.49c.333.475.53 1.048.53 1.66v7.075a.968.968 0 0 1-.968.968H56.13v-5.16Z"/><path fill="#959CB5" d="M50.806 43.478h-.968a.484.484 0 0 1-.483-.483v-1.452h1.935v1.452a.484.484 0 0 1-.484.483Z"/><path fill="#C7CFE2" d="m50.322 41.531-1.64 1.253a.58.58 0 0 1-.862-.183l-1.471-2.687.592-.903a.387.387 0 0 1 .587-.072l2.794 2.592ZM50.322 41.531l1.64 1.253a.58.58 0 0 0 .862-.183l1.472-2.687-.593-.903a.387.387 0 0 0-.587-.072l-2.794 2.592Z"/><path fill="#5A4146" d="M17.323 37.822c-.827-2.191-1.483-5.958-1.625-7.919-.27-3.732-3.082-6.774-6.883-6.774-3.802 0-6.615 3.042-6.884 6.774-.142 1.961-.798 5.728-1.625 7.92a.964.964 0 0 0 .504 1.23c.886.402 2.776 1.189 5.054 1.495h5.9c2.269-.307 4.171-1.094 5.055-1.495a.964.964 0 0 0 .504-1.23Z"/><path fill="#5A4146" d="M16.819 39.053a.964.964 0 0 0 .503-1.23c-.826-2.192-1.482-5.959-1.624-7.92-.27-3.732-3.082-6.774-6.884-6.774h-.028c-2.918.012-3.948 3.99-1.437 5.475.15.089.247.132.247.132l2.2 11.812h1.968c2.269-.307 4.171-1.094 5.055-1.495Z"/><path fill="#E6AF78" d="m15.815 42.493-3.132-1.565a1.936 1.936 0 0 1-1.07-1.732v-2.903H5.806v2.903c0 .733-.414 1.404-1.07 1.732l-3.131 1.565A2.903 2.903 0 0 0 0 45.09v5.719c0 .534.433.968.968.968h15.484a.968.968 0 0 0 .967-.968V45.09c0-1.1-.621-2.105-1.604-2.597Z"/><path fill="#E6AF78" d="M8.71 40.164c1.042 0 2.04-.215 2.955-.597-.024-.122-.052-.244-.052-.37v-2.904H5.806v2.903c0 .128-.028.25-.052.373.915.38 1.913.595 2.955.595Z"/><path fill="#D5DCED" d="m15.815 42.49-2.232-1.115a5.797 5.797 0 0 1-9.747 0l-2.231 1.116A2.903 2.903 0 0 0 0 45.087v5.72c0 .534.433.967.968.967h15.484a.968.968 0 0 0 .967-.968v-5.719c0-1.1-.621-2.105-1.604-2.596Z"/><path fill="#F0C087" d="M8.71 38.226A5.807 5.807 0 0 1 2.95 33.17a.976.976 0 0 1 .517-1.006 8.08 8.08 0 0 0 1.713-1.157 5.588 5.588 0 0 0 1.324-1.742.958.958 0 0 1 1.091-.53c3.408.868 5.727 2.641 6.569 3.365.226.194.356.48.333.778a5.807 5.807 0 0 1-5.789 5.347Z"/><path fill="#F0C087" d="M14.166 32.1c-.842-.723-3.162-2.496-6.569-3.365a.958.958 0 0 0-1.091.53c-.173.362-.46.822-.884 1.292v.003c-.133.15-.273.3-.44.448a8.073 8.073 0 0 1-1.713 1.157.976.976 0 0 0-.517 1.006A5.816 5.816 0 0 0 7.83 38.16c-1.159-.789-2.023-1.873-2.023-3.805v-1.38c.22-.162.441-.324.664-.523a7.705 7.705 0 0 0 1.384-1.632c2.606.813 4.373 2.168 5.043 2.744.184.16.639.58 1.171 1.08a5.76 5.76 0 0 0 .43-1.765.936.936 0 0 0-.333-.778Z"/><path fill="#C7CFE2" d="M.59 43.344A2.897 2.897 0 0 0 0 45.088v5.72c0 .534.433.967.968.967H3.87v-4.876c0-.588-.267-1.144-.727-1.512L.59 43.344Z"/><path fill="url(#b)" d="m43.904 41.171-8.097-2.944L30 40.162l-5.806-1.935-8.097 2.944a3.871 3.871 0 0 0-2.548 3.638v5.998c0 .535.433.968.968.968h30.967a.968.968 0 0 0 .968-.968V44.81a3.87 3.87 0 0 0-2.548-3.638Z"/><path fill="#fff" fill-opacity=".2" d="m43.904 41.171-8.097-2.944L30 40.162l-5.806-1.935-8.097 2.944a3.871 3.871 0 0 0-2.548 3.638v5.998c0 .535.433.968.968.968h30.967a.968.968 0 0 0 .968-.968V44.81a3.87 3.87 0 0 0-2.548-3.638Z"/><path fill="#707487" d="m28.986 42.098-.922 9.677h3.871l-.921-9.677h-2.028Z"/><path fill="#5B5D6E" d="M31.016 43.425h-2.032a.677.677 0 0 1-.677-.677V40.16h3.387v2.588a.677.677 0 0 1-.678.677Z"/><path fill="url(#c)" d="M45.41 42.172a3.866 3.866 0 0 1 1.042 2.637v5.999a.968.968 0 0 1-.968.967h-4.839V48.54a3.87 3.87 0 0 1 1.134-2.737l3.631-3.631Z"/><path fill="#5A4146" d="M40.645 18.27v-8.108a1.935 1.935 0 0 0-1.936-1.935H27.096a7.742 7.742 0 0 0-7.741 7.742v2.3c0 1.04.167 2.074.496 3.06l.322.967c.099.296.15.606.15.918v.496h19.354v-.496c0-.312.05-.622.149-.918l.322-.967c.33-.986.497-2.02.497-3.06Z"/><path fill="#5A4146" d="M24.193 12.158a3.931 3.931 0 0 0 3.932 3.931h.544l.263 7.621h10.745v-.496c0-.312.05-.622.15-.918l.321-.967c.33-.986.497-2.02.497-3.06v-8.107a1.935 1.935 0 0 0-1.936-1.935H28.125a3.931 3.931 0 0 0-3.932 3.931Z"/><path fill="#E6AF78" d="M35.807 31.453H24.193v8.71h11.614v-8.71Z"/><path fill="#E6AF78" d="M24.194 34.725a11.543 11.543 0 0 0 11.612 0v-3.272H24.193v3.272Z"/><path fill="url(#d)" d="m30 40.164-3.087 3.087a.968.968 0 0 1-1.455-.1l-3.2-4.217.837-1.764a.968.968 0 0 1 1.382-.409L30 40.164Z"/><path fill="url(#e)" d="m30 40.164 3.087 3.087a.968.968 0 0 0 1.455-.1l3.2-4.217-.837-1.764a.968.968 0 0 0-1.382-.409L30 40.164Z"/><path fill="#F0C087" d="M30 34.353c-5.345 0-9.678-4.332-9.678-9.677v-1.134c0-.513.204-1.005.567-1.368l.802-.802c.363-.363.567-.855.567-1.369v-2.32a.96.96 0 0 1 .737-.94c2.288-.54 9.41-1.821 14.258 1.744.315.231.489.612.489 1.002v.514c0 .514.203 1.006.566 1.369l.802.802c.363.363.567.855.567 1.368v1.134c0 5.345-4.333 9.677-9.677 9.677Z"/><path fill="#F0C087" d="M37.253 18.489c-3.41-2.507-7.937-2.616-11.124-2.273a26.118 26.118 0 0 0-3.134.53.96.96 0 0 0-.737.94v2.32c0 .513-.204 1.005-.567 1.368l-.802.802a1.936 1.936 0 0 0-.567 1.369v1.133c0 4.948 3.716 9.022 8.508 9.6a9.637 9.637 0 0 1-2.701-6.697v-7.073c0-.98.729-1.8 1.702-1.922 2.322-.292 6.576-.467 9.91 1.42v-.515c0-.39-.174-.77-.488-1.002Z"/><path fill="url(#f)" d="M14.59 42.172a3.866 3.866 0 0 0-1.041 2.637v5.999c0 .534.433.967.968.967h4.838V48.54a3.87 3.87 0 0 0-1.134-2.737l-3.63-3.631Z"/></g><defs><linearGradient id="b" x1="13.549" x2="46.754" y1="40.767" y2="46.468" gradientUnits="userSpaceOnUse"><stop stop-color="#30C917"/><stop offset="1" stop-color="#279A13"/></linearGradient><linearGradient id="c" x1="40.645" x2="46.667" y1="43.972" y2="44.23" gradientUnits="userSpaceOnUse"><stop stop-color="#30C917"/><stop offset="1" stop-color="#279A13"/></linearGradient><linearGradient id="d" x1="22.258" x2="30.251" y1="37.914" y2="38.547" gradientUnits="userSpaceOnUse"><stop stop-color="#30C917"/><stop offset="1" stop-color="#279A13"/></linearGradient><linearGradient id="e" x1="30" x2="37.993" y1="37.914" y2="38.547" gradientUnits="userSpaceOnUse"><stop stop-color="#30C917"/><stop offset="1" stop-color="#279A13"/></linearGradient><linearGradient id="f" x1="13.549" x2="19.57" y1="43.972" y2="44.23" gradientUnits="userSpaceOnUse"><stop stop-color="#30C917"/><stop offset="1" stop-color="#279A13"/></linearGradient><clipPath id="a"><path fill="#fff" d="M0 0h60v60H0z"/></clipPath></defs></svg>