<svg xmlns="http://www.w3.org/2000/svg" width="60" height="60" fill="none"><g clip-path="url(#a)"><path fill="url(#b)" d="m57.242 30.002 2.633-6.866a1.877 1.877 0 0 0-.57-2.13l-5.708-4.627-1.154-7.263a1.874 1.874 0 0 0-1.56-1.556l-7.264-1.155-4.623-5.71a1.878 1.878 0 0 0-2.126-.57L30 2.76 23.134.128a1.87 1.87 0 0 0-2.126.57l-4.627 5.71-7.263 1.156A1.879 1.879 0 0 0 7.562 9.12l-1.155 7.263-5.71 4.627a1.876 1.876 0 0 0-.57 2.126l2.631 6.866-2.632 6.866a1.87 1.87 0 0 0 .57 2.126l5.71 4.623 1.156 7.264a1.874 1.874 0 0 0 1.556 1.56l7.263 1.154 4.627 5.708a1.866 1.866 0 0 0 2.13.57L30 57.244l6.866 2.632a1.87 1.87 0 0 0 2.13-.574l4.623-5.706 7.264-1.155a1.878 1.878 0 0 0 1.56-1.56l1.154-7.264 5.708-4.623a1.872 1.872 0 0 0 .57-2.126l-2.633-6.866Z"/><path fill="#FAFAFA" d="M24.376 26.25a5.631 5.631 0 0 1-5.625-5.625A5.632 5.632 0 0 1 24.376 15 5.632 5.632 0 0 1 30 20.625a5.631 5.631 0 0 1-5.624 5.624Zm0-7.5a1.876 1.876 0 1 0 .001 3.751 1.876 1.876 0 0 0-.001-3.751ZM35.625 45A5.631 5.631 0 0 1 30 39.374a5.632 5.632 0 0 1 5.625-5.625 5.631 5.631 0 0 1 5.624 5.625 5.631 5.631 0 0 1-5.624 5.624Zm0-7.5a1.88 1.88 0 0 0-1.875 1.875 1.88 1.88 0 0 0 1.875 1.874 1.88 1.88 0 0 0 1.874-1.874 1.88 1.88 0 0 0-1.874-1.875ZM20.626 45a1.874 1.874 0 0 1-1.522-2.966l18.748-26.248a1.874 1.874 0 1 1 3.053 2.178L22.156 44.213a1.883 1.883 0 0 1-1.53.787Z"/></g><defs><linearGradient id="b" x1=".001" x2="62.024" y1="11.25" y2="15.635" gradientUnits="userSpaceOnUse"><stop stop-color="#30C917"/><stop offset="1" stop-color="#279A13"/></linearGradient><clipPath id="a"><path fill="#fff" d="M0 0h60v60H0z"/></clipPath></defs></svg>