<svg xmlns="http://www.w3.org/2000/svg" width="60" height="60" fill="none"><g clip-path="url(#a)"><path fill="url(#b)" d="m50.462 4.551-9.985-3.007a36.325 36.325 0 0 0-20.953 0L9.536 4.55A5.078 5.078 0 0 0 6.26 7.597L1.484 20.07a22.41 22.41 0 0 0 7.225 25.747l13.058 10.09a13.465 13.465 0 0 0 16.465 0l13.059-10.09a22.41 22.41 0 0 0 7.225-25.747L53.74 7.597a5.08 5.08 0 0 0-3.278-3.046Z"/><path fill="url(#c)" d="m47.413 8.248-8.497-2.56a30.913 30.913 0 0 0-17.831 0l-8.498 2.56a4.32 4.32 0 0 0-2.79 2.592L5.734 21.454a19.07 19.07 0 0 0 6.15 21.91l11.111 8.586a11.458 11.458 0 0 0 14.012 0l11.112-8.586a19.071 19.071 0 0 0 6.149-21.91L50.202 10.84a4.32 4.32 0 0 0-2.789-2.592Z"/><path fill="url(#d)" d="M40.456 46.527c-6.925 1.891-13.987 1.891-20.913 0a1.761 1.761 0 0 1-1.295-1.7V26.563c0-.793.53-1.49 1.295-1.7 6.926-1.89 13.988-1.89 20.913 0a1.761 1.761 0 0 1 1.295 1.7v18.264c0 .794-.53 1.492-1.294 1.7Z"/><path fill="url(#e)" d="M40.098 24.769a47.25 47.25 0 0 0-.425-.11l-.285-.07a34.322 34.322 0 0 0-.413-.1l-.29-.066a44.145 44.145 0 0 0-.413-.091l-.286-.06a42.9 42.9 0 0 0-.426-.086l-.272-.053c-.156-.03-.312-.057-.468-.085l-.23-.041a39.426 39.426 0 0 0-1.393-.213l-.23-.03-.469-.057-.272-.03-.428-.045-.287-.027a32.418 32.418 0 0 0-1.122-.085l-.289-.017a34.1 34.1 0 0 0-.428-.02l-.273-.012c-.156-.006-.313-.01-.47-.013-.077-.002-.153-.005-.23-.006a35.412 35.412 0 0 0-1.399 0l-.23.006-.47.013-.272.012a34.18 34.18 0 0 0-.429.02l-.287.017a30.502 30.502 0 0 0-.707.05c-.139.01-.277.023-.416.035a55.469 55.469 0 0 0-.715.072l-.272.03c-.156.018-.313.038-.469.058l-.23.03c-.228.03-.456.062-.684.097l-.014.002c-.232.035-.464.073-.696.113l-.229.04-.468.085-.271.053a35.82 35.82 0 0 0-1.828.403 33.046 33.046 0 0 0-.71.18l-.271.072-.12.033c-.424.125-.773.4-.996.758 7.596 2.284 15.372 2.284 22.968 0a1.755 1.755 0 0 0-.996-.758l-.12-.033-.27-.071Z"/><path fill="url(#f)" d="M33.129 35.184a3.13 3.13 0 0 0-3.353-3.122 3.14 3.14 0 0 0-2.898 2.893 3.123 3.123 0 0 0 1.231 2.722c.553.42.862 1.086.862 1.78v1.281c0 .566.443 1.051 1.01 1.062a1.028 1.028 0 0 0 1.046-1.028v-1.35c0-.676.303-1.326.845-1.731a3.123 3.123 0 0 0 1.257-2.507Z"/><path fill="url(#g)" d="M37.2 26.158a1.508 1.508 0 0 1-1.507-1.508v-7.366a5.7 5.7 0 0 0-5.694-5.693 5.7 5.7 0 0 0-5.693 5.693v7.366a1.508 1.508 0 1 1-3.017 0v-7.366c0-4.803 3.907-8.71 8.71-8.71 4.803 0 8.71 3.907 8.71 8.71v7.366c0 .833-.675 1.508-1.508 1.508Z"/></g><defs><linearGradient id="b" x1="17.17" x2="41.591" y1="12.47" y2="36.891" gradientUnits="userSpaceOnUse"><stop stop-color="#ECF7FF"/><stop offset="1" stop-color="#C2E0FF"/></linearGradient><linearGradient id="c" x1="4.471" x2="57.241" y1="13.744" y2="17.556" gradientUnits="userSpaceOnUse"><stop stop-color="#30C917"/><stop offset="1" stop-color="#279A13"/></linearGradient><linearGradient id="d" x1="22.03" x2="43.195" y1="30.922" y2="43.597" gradientUnits="userSpaceOnUse"><stop stop-color="#FFC738"/><stop offset=".429" stop-color="#FFBB23"/><stop offset="1" stop-color="#FFA700"/></linearGradient><linearGradient id="e" x1="30" x2="30" y1="23.786" y2="26.696" gradientUnits="userSpaceOnUse"><stop stop-color="#FFC738"/><stop offset=".429" stop-color="#FFBB23"/><stop offset="1" stop-color="#FFA700"/></linearGradient><linearGradient id="f" x1="29.016" x2="32.816" y1="33.937" y2="40.969" gradientUnits="userSpaceOnUse"><stop stop-color="#3B395F"/><stop offset=".063" stop-color="#37355A"/><stop offset=".403" stop-color="#232543"/><stop offset=".723" stop-color="#171B35"/><stop offset="1" stop-color="#131830"/></linearGradient><linearGradient id="g" x1="29.999" x2="29.999" y1="21.977" y2="27.536" gradientUnits="userSpaceOnUse"><stop stop-color="#3B395F"/><stop offset=".063" stop-color="#37355A"/><stop offset=".403" stop-color="#232543"/><stop offset=".723" stop-color="#171B35"/><stop offset="1" stop-color="#131830"/></linearGradient><clipPath id="a"><path fill="#fff" d="M0 0h60v60H0z"/></clipPath></defs></svg>