<svg width="100" height="100" fill="none" xmlns="http://www.w3.org/2000/svg"><g filter="url(#a)"><circle cx="45" cy="50" r="31" fill="#fff"/></g><g filter="url(#b)"><circle cx="45" cy="50" r="31" fill="url(#c)"/><mask id="d" maskUnits="userSpaceOnUse" x="19.405" y="35.445" width="51" height="39" fill="#000"><path fill="#fff" d="M19.405 35.445h51v39h-51z"/><path d="M57.794 41.302a13.866 13.866 0 0 0-4.199.683 13.343 13.343 0 0 0-3.78 1.933c-1.149.839-2.163 1.845-3.16 2.861-.995 1.019-1.988 2-3.07 2.94 2.185 1.323 4.653 2.085 7.19 2.36 2.535.283 5.128.01 7.55-.776a17.956 17.956 0 0 0 6.557-3.805c1.88-1.715 3.428-3.642 4.387-5.997a17.457 17.457 0 0 0-6.034-3.682 17.308 17.308 0 0 0-6.999-.949 16.55 16.55 0 0 0-3.49.639c-1.135.34-2.234.798-3.27 1.372-.515.29-1.018.602-1.498.95-.48.349-.948.714-1.397 1.104-.902.776-1.75 1.617-2.59 2.471-.84.852-1.674 1.718-2.551 2.545-.44.413-.887.818-1.354 1.203-.466.386-.947.756-1.453 1.093-.125.085-.25.17-.38.249-.13.08-.258.162-.389.238l-.398.224c-.131.077-.27.14-.405.21l-.205.102c-.068.033-.139.063-.208.094-.14.06-.277.125-.418.183-.285.109-.568.223-.86.31-.288.1-.586.167-.88.246l-.448.092-.225.045-.227.034c-.603.09-1.213.132-1.822.126a12.142 12.142 0 0 1-5.283-1.274 12.99 12.99 0 0 1-1.567-.934 12.64 12.64 0 0 1-4.462-5.65l-.05-.129.111-.08c1.672-1.21 3.683-1.908 5.724-2.089a12.598 12.598 0 0 1 6.013.964c.942.402 1.832.92 2.661 1.519a15.506 15.506 0 0 1 2.273 2.048c1.374 1.512 2.468 3.261 3.3 5.117.42.928.77 1.885 1.06 2.86.15.487.273.98.39 1.475.11.496.212.995.288 1.498.153 1.004.272 2.011.36 3.021.05.504.084 1.01.125 1.516.032.506.07 1.01.096 1.517.114 2.023.178 4.048.198 6.074.024 2.026.002 4.052-.076 6.076.026-1.012.037-2.025.037-3.037a166.256 166.256 0 0 0-.035-3.038 132.96 132.96 0 0 0-.258-6.067c-.03-.505-.074-1.01-.111-1.515-.047-.504-.084-1.008-.14-1.511a47.751 47.751 0 0 0-.387-3.006 23.462 23.462 0 0 0-1.76-5.768c-.834-1.832-1.925-3.553-3.286-5.032a15.18 15.18 0 0 0-2.243-1.998 13.523 13.523 0 0 0-2.61-1.47 12.275 12.275 0 0 0-5.865-.904c-1.984.189-3.87.73-5.483 1.902.873 2.196 2.41 4.046 4.343 5.401.486.337.994.639 1.521.904a11.746 11.746 0 0 0 5.119 1.224c.59.005 1.18-.037 1.761-.126l.218-.033.217-.043.433-.09c.284-.078.572-.142.85-.24.282-.085.555-.196.83-.301.137-.056.27-.119.405-.178.067-.03.135-.059.201-.092l.198-.1c.13-.068.265-.13.393-.204l.385-.218c.127-.075.25-.156.377-.234a16.958 16.958 0 0 0 1.789-1.315c.458-.377.9-.778 1.332-1.188.868-.818 1.695-1.684 2.539-2.538.843-.854 1.701-1.702 2.62-2.488.456-.395.935-.768 1.426-1.123.491-.356 1.01-.676 1.539-.973a17.075 17.075 0 0 1 3.352-1.398 16.958 16.958 0 0 1 3.572-.646c2.418-.162 4.87.161 7.152.983a17.812 17.812 0 0 1 6.153 3.772l.09.084-.046.113c-.251.599-.53 1.185-.84 1.756a18.634 18.634 0 0 1-1.033 1.648c-.379.527-.78 1.037-1.212 1.52-.434.481-.889.944-1.37 1.379a18.263 18.263 0 0 1-6.69 3.831 18.352 18.352 0 0 1-7.663.742 17.636 17.636 0 0 1-7.26-2.53l-.105-.065.094-.08c1.082-.92 2.071-1.947 3.078-2.958 1.007-1.008 2.036-2.009 3.202-2.843a13.298 13.298 0 0 1 3.821-1.905 13.93 13.93 0 0 1 2.084-.48 14.444 14.444 0 0 1 2.13-.151Z"/></mask><path d="M57.794 41.302a13.866 13.866 0 0 0-4.199.683 13.343 13.343 0 0 0-3.78 1.933c-1.149.839-2.163 1.845-3.16 2.861-.995 1.019-1.988 2-3.07 2.94 2.185 1.323 4.653 2.085 7.19 2.36 2.535.283 5.128.01 7.55-.776a17.956 17.956 0 0 0 6.557-3.805c1.88-1.715 3.428-3.642 4.387-5.997a17.457 17.457 0 0 0-6.034-3.682 17.308 17.308 0 0 0-6.999-.949 16.55 16.55 0 0 0-3.49.639c-1.135.34-2.234.798-3.27 1.372-.515.29-1.018.602-1.498.95-.48.349-.948.714-1.397 1.104-.902.776-1.75 1.617-2.59 2.471-.84.852-1.674 1.718-2.551 2.545-.44.413-.887.818-1.354 1.203-.466.386-.947.756-1.453 1.093-.125.085-.25.17-.38.249-.13.08-.258.162-.389.238l-.398.224c-.131.077-.27.14-.405.21l-.205.102c-.068.033-.139.063-.208.094-.14.06-.277.125-.418.183-.285.109-.568.223-.86.31-.288.1-.586.167-.88.246l-.448.092-.225.045-.227.034c-.603.09-1.213.132-1.822.126a12.142 12.142 0 0 1-5.283-1.274 12.99 12.99 0 0 1-1.567-.934 12.64 12.64 0 0 1-4.462-5.65l-.05-.129.111-.08c1.672-1.21 3.683-1.908 5.724-2.089a12.598 12.598 0 0 1 6.013.964c.942.402 1.832.92 2.661 1.519a15.506 15.506 0 0 1 2.273 2.048c1.374 1.512 2.468 3.261 3.3 5.117.42.928.77 1.885 1.06 2.86.15.487.273.98.39 1.475.11.496.212.995.288 1.498.153 1.004.272 2.011.36 3.021.05.504.084 1.01.125 1.516.032.506.07 1.01.096 1.517.114 2.023.178 4.048.198 6.074.024 2.026.002 4.052-.076 6.076.026-1.012.037-2.025.037-3.037a166.256 166.256 0 0 0-.035-3.038 132.96 132.96 0 0 0-.258-6.067c-.03-.505-.074-1.01-.111-1.515-.047-.504-.084-1.008-.14-1.511a47.751 47.751 0 0 0-.387-3.006 23.462 23.462 0 0 0-1.76-5.768c-.834-1.832-1.925-3.553-3.286-5.032a15.18 15.18 0 0 0-2.243-1.998 13.523 13.523 0 0 0-2.61-1.47 12.275 12.275 0 0 0-5.865-.904c-1.984.189-3.87.73-5.483 1.902.873 2.196 2.41 4.046 4.343 5.401.486.337.994.639 1.521.904a11.746 11.746 0 0 0 5.119 1.224c.59.005 1.18-.037 1.761-.126l.218-.033.217-.043.433-.09c.284-.078.572-.142.85-.24.282-.085.555-.196.83-.301.137-.056.27-.119.405-.178.067-.03.135-.059.201-.092l.198-.1c.13-.068.265-.13.393-.204l.385-.218c.127-.075.25-.156.377-.234a16.958 16.958 0 0 0 1.789-1.315c.458-.377.9-.778 1.332-1.188.868-.818 1.695-1.684 2.539-2.538.843-.854 1.701-1.702 2.62-2.488.456-.395.935-.768 1.426-1.123.491-.356 1.01-.676 1.539-.973a17.075 17.075 0 0 1 3.352-1.398 16.958 16.958 0 0 1 3.572-.646c2.418-.162 4.87.161 7.152.983a17.812 17.812 0 0 1 6.153 3.772l.09.084-.046.113c-.251.599-.53 1.185-.84 1.756a18.634 18.634 0 0 1-1.033 1.648c-.379.527-.78 1.037-1.212 1.52-.434.481-.889.944-1.37 1.379a18.263 18.263 0 0 1-6.69 3.831 18.352 18.352 0 0 1-7.663.742 17.636 17.636 0 0 1-7.26-2.53l-.105-.065.094-.08c1.082-.92 2.071-1.947 3.078-2.958 1.007-1.008 2.036-2.009 3.202-2.843a13.298 13.298 0 0 1 3.821-1.905 13.93 13.93 0 0 1 2.084-.48 14.444 14.444 0 0 1 2.13-.151Z" fill="#fff"/><path d="M57.794 41.302a13.866 13.866 0 0 0-4.199.683 13.343 13.343 0 0 0-3.78 1.933c-1.149.839-2.163 1.845-3.16 2.861-.995 1.019-1.988 2-3.07 2.94 2.185 1.323 4.653 2.085 7.19 2.36 2.535.283 5.128.01 7.55-.776a17.956 17.956 0 0 0 6.557-3.805c1.88-1.715 3.428-3.642 4.387-5.997a17.457 17.457 0 0 0-6.034-3.682 17.308 17.308 0 0 0-6.999-.949 16.55 16.55 0 0 0-3.49.639c-1.135.34-2.234.798-3.27 1.372-.515.29-1.018.602-1.498.95-.48.349-.948.714-1.397 1.104-.902.776-1.75 1.617-2.59 2.471-.84.852-1.674 1.718-2.551 2.545-.44.413-.887.818-1.354 1.203-.466.386-.947.756-1.453 1.093-.125.085-.25.17-.38.249-.13.08-.258.162-.389.238l-.398.224c-.131.077-.27.14-.405.21l-.205.102c-.068.033-.139.063-.208.094-.14.06-.277.125-.418.183-.285.109-.568.223-.86.31-.288.1-.586.167-.88.246l-.448.092-.225.045-.227.034c-.603.09-1.213.132-1.822.126a12.142 12.142 0 0 1-5.283-1.274 12.99 12.99 0 0 1-1.567-.934 12.64 12.64 0 0 1-4.462-5.65l-.05-.129.111-.08c1.672-1.21 3.683-1.908 5.724-2.089a12.598 12.598 0 0 1 6.013.964c.942.402 1.832.92 2.661 1.519a15.506 15.506 0 0 1 2.273 2.048c1.374 1.512 2.468 3.261 3.3 5.117.42.928.77 1.885 1.06 2.86.15.487.273.98.39 1.475.11.496.212.995.288 1.498.153 1.004.272 2.011.36 3.021.05.504.084 1.01.125 1.516.032.506.07 1.01.096 1.517.114 2.023.178 4.048.198 6.074.024 2.026.002 4.052-.076 6.076.026-1.012.037-2.025.037-3.037a166.256 166.256 0 0 0-.035-3.038 132.96 132.96 0 0 0-.258-6.067c-.03-.505-.074-1.01-.111-1.515-.047-.504-.084-1.008-.14-1.511a47.751 47.751 0 0 0-.387-3.006 23.462 23.462 0 0 0-1.76-5.768c-.834-1.832-1.925-3.553-3.286-5.032a15.18 15.18 0 0 0-2.243-1.998 13.523 13.523 0 0 0-2.61-1.47 12.275 12.275 0 0 0-5.865-.904c-1.984.189-3.87.73-5.483 1.902.873 2.196 2.41 4.046 4.343 5.401.486.337.994.639 1.521.904a11.746 11.746 0 0 0 5.119 1.224c.59.005 1.18-.037 1.761-.126l.218-.033.217-.043.433-.09c.284-.078.572-.142.85-.24.282-.085.555-.196.83-.301.137-.056.27-.119.405-.178.067-.03.135-.059.201-.092l.198-.1c.13-.068.265-.13.393-.204l.385-.218c.127-.075.25-.156.377-.234a16.958 16.958 0 0 0 1.789-1.315c.458-.377.9-.778 1.332-1.188.868-.818 1.695-1.684 2.539-2.538.843-.854 1.701-1.702 2.62-2.488.456-.395.935-.768 1.426-1.123.491-.356 1.01-.676 1.539-.973a17.075 17.075 0 0 1 3.352-1.398 16.958 16.958 0 0 1 3.572-.646c2.418-.162 4.87.161 7.152.983a17.812 17.812 0 0 1 6.153 3.772l.09.084-.046.113c-.251.599-.53 1.185-.84 1.756a18.634 18.634 0 0 1-1.033 1.648c-.379.527-.78 1.037-1.212 1.52-.434.481-.889.944-1.37 1.379a18.263 18.263 0 0 1-6.69 3.831 18.352 18.352 0 0 1-7.663.742 17.636 17.636 0 0 1-7.26-2.53l-.105-.065.094-.08c1.082-.92 2.071-1.947 3.078-2.958 1.007-1.008 2.036-2.009 3.202-2.843a13.298 13.298 0 0 1 3.821-1.905 13.93 13.93 0 0 1 2.084-.48 14.444 14.444 0 0 1 2.13-.151Z" stroke="#fff" stroke-width="1.057" mask="url(#d)"/></g><defs><filter id="a" x="5.32" y="19" width="80.6" height="62.62" filterUnits="userSpaceOnUse" color-interpolation-filters="sRGB"><feFlood flood-opacity="0" result="BackgroundImageFix"/><feBlend in="SourceGraphic" in2="BackgroundImageFix" result="shape"/><feColorMatrix in="SourceAlpha" values="0 0 0 0 0 0 0 0 0 0 0 0 0 0 0 0 0 0 127 0" result="hardAlpha"/><feOffset dx="-8.68"/><feGaussianBlur stdDeviation="5.27"/><feComposite in2="hardAlpha" operator="arithmetic" k2="-1" k3="1"/><feColorMatrix values="0 0 0 0 0.104167 0 0 0 0 0.066116 0 0 0 0 0.030816 0 0 0 0.12 0"/><feBlend in2="shape" result="effect1_innerShadow_300_866"/><feColorMatrix in="SourceAlpha" values="0 0 0 0 0 0 0 0 0 0 0 0 0 0 0 0 0 0 127 0" result="hardAlpha"/><feMorphology radius="1.24" in="SourceAlpha" result="effect2_innerShadow_300_866"/><feOffset dx="9.92" dy=".62"/><feGaussianBlur stdDeviation="9.61"/><feComposite in2="hardAlpha" operator="arithmetic" k2="-1" k3="1"/><feColorMatrix values="0 0 0 0 1 0 0 0 0 1 0 0 0 0 1 0 0 0 0.4 0"/><feBlend in2="effect1_innerShadow_300_866" result="effect2_innerShadow_300_866"/></filter><filter id="b" x="-9.619" y="-1.667" width="109.238" height="109.238" filterUnits="userSpaceOnUse" color-interpolation-filters="sRGB"><feFlood flood-opacity="0" result="BackgroundImageFix"/><feColorMatrix in="SourceAlpha" values="0 0 0 0 0 0 0 0 0 0 0 0 0 0 0 0 0 0 127 0" result="hardAlpha"/><feOffset dy="2.952"/><feGaussianBlur stdDeviation="11.809"/><feComposite in2="hardAlpha" operator="out"/><feColorMatrix values="0 0 0 0 0.104167 0 0 0 0 0.066116 0 0 0 0 0.030816 0 0 0 0.12 0"/><feBlend in2="BackgroundImageFix" result="effect1_dropShadow_300_866"/><feBlend in="SourceGraphic" in2="effect1_dropShadow_300_866" result="shape"/></filter><linearGradient id="c" x1="14" y1="30.625" x2="78.093" y2="35.156" gradientUnits="userSpaceOnUse"><stop stop-color="#30C917"/><stop offset="1" stop-color="#279A13"/></linearGradient></defs></svg>